<mxfile host="app.diagrams.net" modified="2020-12-13T06:54:20.466Z" agent="5.0 (Macintosh; Intel Mac OS X 10_15_7) AppleWebKit/537.36 (KHTML, like Gecko) Chrome/87.0.4280.88 Safari/537.36" etag="usc9IvScaqTMNcZQ7_P6" version="14.0.1" type="github">
  <diagram name="Page-1" id="efa7a0a1-bf9b-a30e-e6df-94a7791c09e9">
    <mxGraphModel dx="2249" dy="2276" grid="1" gridSize="10" guides="1" tooltips="1" connect="1" arrows="1" fold="1" page="1" pageScale="1" pageWidth="826" pageHeight="1169" background="#ffffff" math="0" shadow="0">
      <root>
        <mxCell id="0" />
        <mxCell id="1" parent="0" />
        <mxCell id="yvn1otVcxnGCeWS-NwdR-57" value="" style="rounded=0;whiteSpace=wrap;html=1;fillColor=#f5f5f5;strokeColor=#666666;fontColor=#333333;dashed=1;" vertex="1" parent="1">
          <mxGeometry x="540" y="600" width="320" height="120" as="geometry" />
        </mxCell>
        <mxCell id="yvn1otVcxnGCeWS-NwdR-55" style="edgeStyle=orthogonalEdgeStyle;rounded=0;orthogonalLoop=1;jettySize=auto;html=1;entryX=0.962;entryY=0.23;entryDx=0;entryDy=0;entryPerimeter=0;labelBackgroundColor=none;startArrow=none;startFill=0;endArrow=blockThin;endFill=1;strokeColor=#000000;fontSize=10;fontColor=#FF0000;align=center;" edge="1" parent="1" source="VF1F4Plbv53C-rskRq-l-115" target="yvn1otVcxnGCeWS-NwdR-30">
          <mxGeometry relative="1" as="geometry" />
        </mxCell>
        <mxCell id="VF1F4Plbv53C-rskRq-l-115" value="&lt;p style=&quot;margin: 4px 0px 0px ; text-align: center ; font-size: 11px&quot;&gt;&lt;span style=&quot;background-color: rgb(30 , 30 , 30) ; color: rgb(78 , 201 , 176) ; font-family: &amp;#34;menlo&amp;#34; , &amp;#34;monaco&amp;#34; , &amp;#34;courier new&amp;#34; , monospace ; font-size: 12px ; text-align: left&quot;&gt;pickUtils &amp;lt;PickUtils&amp;gt;&lt;/span&gt;&lt;br&gt;&lt;/p&gt;&lt;hr style=&quot;font-size: 11px&quot;&gt;&lt;div style=&quot;color: rgb(212 , 212 , 212) ; background-color: rgb(30 , 30 , 30) ; font-family: &amp;#34;menlo&amp;#34; , &amp;#34;monaco&amp;#34; , &amp;#34;courier new&amp;#34; , monospace ; line-height: 18px ; font-size: 11px&quot;&gt;&lt;div&gt;&lt;span style=&quot;color: rgb(156 , 220 , 254)&quot;&gt;&amp;nbsp;bracketUtils&lt;/span&gt;:&amp;nbsp;&lt;span style=&quot;color: rgb(78 , 201 , 176)&quot;&gt;BracketUtils&lt;/span&gt;&lt;/div&gt;&lt;div&gt;&lt;span style=&quot;color: rgb(156 , 220 , 254)&quot;&gt;&amp;nbsp;bracketPeriodTree&lt;/span&gt;:&amp;nbsp;&lt;span style=&quot;color: rgb(78 , 201 , 176)&quot;&gt;IBracketTree&lt;/span&gt;&amp;nbsp;|&amp;nbsp;&lt;span style=&quot;color: rgb(78 , 201 , 176)&quot;&gt;undefined&lt;/span&gt;&lt;/div&gt;&lt;div&gt;&lt;span style=&quot;color: rgb(156 , 220 , 254)&quot;&gt;&amp;nbsp;bracketMapping&lt;/span&gt;:&amp;nbsp;&lt;span style=&quot;color: rgb(78 , 201 , 176)&quot;&gt;IBracketKeyValMapping&lt;/span&gt;&amp;nbsp;|&amp;nbsp;&lt;span style=&quot;color: rgb(78 , 201 , 176)&quot;&gt;undefined&lt;/span&gt;&lt;/div&gt;&lt;div&gt;&lt;span style=&quot;color: rgb(156 , 220 , 254)&quot;&gt;&amp;nbsp;picks&lt;/span&gt;:&amp;nbsp;&lt;span style=&quot;color: rgb(78 , 201 , 176)&quot;&gt;IPickUtilsPicks&lt;/span&gt;&amp;nbsp;= []&lt;/div&gt;&lt;div&gt;&lt;span style=&quot;color: rgb(156 , 220 , 254)&quot;&gt;&amp;nbsp;events&lt;/span&gt;:&amp;nbsp;&lt;span style=&quot;color: rgb(78 , 201 , 176)&quot;&gt;IPickUtilsEvent&lt;/span&gt;[] = []&lt;/div&gt;&lt;div&gt;&lt;span style=&quot;color: rgb(156 , 220 , 254)&quot;&gt;&amp;nbsp;matchups&lt;/span&gt;:&amp;nbsp;&lt;span style=&quot;color: rgb(78 , 201 , 176)&quot;&gt;IBracketUtilMatchup&lt;/span&gt;[] = []&lt;/div&gt;&lt;div&gt;&lt;span style=&quot;color: rgb(156 , 220 , 254)&quot;&gt;&amp;nbsp;teams&lt;/span&gt;:&amp;nbsp;&lt;span style=&quot;color: rgb(78 , 201 , 176)&quot;&gt;IPickUtilsTeam&lt;/span&gt;[] = []&lt;/div&gt;&lt;div&gt;&lt;span style=&quot;color: rgb(156 , 220 , 254)&quot;&gt;&amp;nbsp;changes&lt;/span&gt;&amp;nbsp;= []&amp;nbsp;&lt;span style=&quot;color: rgb(197 , 134 , 192)&quot;&gt;as&lt;/span&gt;&amp;nbsp;&lt;span style=&quot;color: rgb(78 , 201 , 176)&quot;&gt;IPickUtilsPicks&lt;/span&gt;&lt;/div&gt;&lt;div&gt;&lt;span style=&quot;color: rgb(156 , 220 , 254)&quot;&gt;&amp;nbsp;merged&lt;/span&gt;&amp;nbsp;= []&amp;nbsp;&lt;span style=&quot;color: rgb(197 , 134 , 192)&quot;&gt;as&lt;/span&gt;&amp;nbsp;&lt;span style=&quot;color: rgb(78 , 201 , 176)&quot;&gt;IPickUtilsPicks&lt;/span&gt;&lt;/div&gt;&lt;div&gt;&lt;span style=&quot;color: rgb(156 , 220 , 254)&quot;&gt;&amp;nbsp;filteredEvents&lt;/span&gt;&amp;nbsp;= []&amp;nbsp;&lt;span style=&quot;color: rgb(197 , 134 , 192)&quot;&gt;as&lt;/span&gt;&amp;nbsp;&lt;span style=&quot;color: rgb(78 , 201 , 176)&quot;&gt;IPickUtilsEvent&lt;/span&gt;[]&lt;/div&gt;&lt;div&gt;&lt;span style=&quot;color: rgb(156 , 220 , 254)&quot;&gt;&amp;nbsp;period&lt;/span&gt;:&amp;nbsp;&lt;span style=&quot;color: rgb(78 , 201 , 176)&quot;&gt;IPickUtilsPeriod&lt;/span&gt;&lt;/div&gt;&lt;div&gt;&lt;font style=&quot;font-size: 11px&quot;&gt;&lt;span style=&quot;color: #9cdcfe&quot;&gt;&amp;nbsp;needsSave&lt;/span&gt; = &lt;span style=&quot;color: #569cd6&quot;&gt;false&lt;/span&gt;&lt;/font&gt;&lt;/div&gt;&lt;div&gt;&lt;font style=&quot;font-size: 11px&quot;&gt;&lt;span style=&quot;color: #9cdcfe&quot;&gt;&amp;nbsp;logger&lt;/span&gt;: &lt;span style=&quot;color: #4ec9b0&quot;&gt;any&lt;/span&gt;&lt;/font&gt;&lt;/div&gt;&lt;div&gt;&lt;font style=&quot;font-size: 11px&quot;&gt;&lt;span style=&quot;color: #9cdcfe&quot;&gt;&amp;nbsp;cacheValue&lt;/span&gt; = &lt;span style=&quot;color: #ce9178&quot;&gt;&quot;&quot;&lt;/span&gt;&lt;/font&gt;&lt;/div&gt;&lt;div&gt;&lt;span style=&quot;color: rgb(156 , 220 , 254)&quot;&gt;&amp;nbsp;home&lt;/span&gt; = &lt;span style=&quot;color: rgb(79 , 193 , 255)&quot;&gt;homeValue&lt;/span&gt;&lt;br&gt;&lt;/div&gt;&lt;div&gt;&lt;font style=&quot;font-size: 11px&quot;&gt;&lt;span style=&quot;color: #9cdcfe&quot;&gt;&amp;nbsp;away&lt;/span&gt; = &lt;span style=&quot;color: #4fc1ff&quot;&gt;awayValue&lt;/span&gt;&lt;/font&gt;&lt;/div&gt;&lt;div&gt;&lt;font style=&quot;font-size: 11px&quot;&gt;&lt;span style=&quot;color: #dcdcaa&quot;&gt;&amp;nbsp;getKeyFor&lt;/span&gt; = &lt;span style=&quot;color: #dcdcaa&quot;&gt;getKeyFor&lt;/span&gt;&lt;/font&gt;&lt;/div&gt;&lt;div&gt;&lt;span style=&quot;color: rgb(156 , 220 , 254)&quot;&gt;&amp;nbsp;picksCacheKey&lt;/span&gt; = &lt;span style=&quot;color: rgb(206 , 145 , 120)&quot;&gt;&quot;&quot;&lt;/span&gt;&lt;br&gt;&lt;/div&gt;&lt;/div&gt;" style="verticalAlign=top;align=left;overflow=fill;fontSize=12;fontFamily=Helvetica;html=1;strokeColor=#003366;shadow=0;fillColor=#D4E1F5;fontColor=#003366" parent="1" vertex="1">
          <mxGeometry x="628.75" y="200" width="340" height="359" as="geometry" />
        </mxCell>
        <mxCell id="-kxU-s-FRwQV0nLQ8hPZ-25" style="edgeStyle=orthogonalEdgeStyle;rounded=0;orthogonalLoop=1;jettySize=auto;html=1;fontSize=10;entryX=-0.006;entryY=0.162;entryDx=0;entryDy=0;entryPerimeter=0;" parent="1" source="VF1F4Plbv53C-rskRq-l-133" target="VF1F4Plbv53C-rskRq-l-134" edge="1">
          <mxGeometry relative="1" as="geometry">
            <mxPoint x="-20" y="-840" as="targetPoint" />
          </mxGeometry>
        </mxCell>
        <mxCell id="-kxU-s-FRwQV0nLQ8hPZ-31" style="edgeStyle=orthogonalEdgeStyle;rounded=0;orthogonalLoop=1;jettySize=auto;html=1;fontSize=10;" parent="1" source="VF1F4Plbv53C-rskRq-l-133" target="-kxU-s-FRwQV0nLQ8hPZ-29" edge="1">
          <mxGeometry relative="1" as="geometry">
            <Array as="points">
              <mxPoint x="-303" y="-937" />
              <mxPoint x="-80" y="-937" />
            </Array>
          </mxGeometry>
        </mxCell>
        <mxCell id="VF1F4Plbv53C-rskRq-l-133" value="&lt;p style=&quot;margin: 4px 0px 0px ; text-align: center ; text-decoration: underline ; font-size: 11px&quot;&gt;&lt;span style=&quot;background-color: rgb(30 , 30 , 30) ; color: rgb(78 , 201 , 176) ; font-family: &amp;#34;menlo&amp;#34; , &amp;#34;monaco&amp;#34; , &amp;#34;courier new&amp;#34; , monospace ; font-size: 12px ; text-align: left&quot;&gt;event &amp;lt;IBracketUtilMatchupEvent&amp;gt;&lt;/span&gt;&lt;br&gt;&lt;/p&gt;&lt;hr style=&quot;font-size: 11px&quot;&gt;&lt;div style=&quot;background-color: rgb(30 , 30 , 30) ; font-family: &amp;#34;menlo&amp;#34; , &amp;#34;monaco&amp;#34; , &amp;#34;courier new&amp;#34; , monospace ; line-height: 18px ; font-size: 11px&quot;&gt;&lt;div style=&quot;color: rgb(212 , 212 , 212)&quot;&gt;&lt;div style=&quot;font-family: &amp;#34;menlo&amp;#34; , &amp;#34;monaco&amp;#34; , &amp;#34;courier new&amp;#34; , monospace ; font-size: 12px ; line-height: 18px&quot;&gt;&lt;div&gt;&lt;span style=&quot;color: rgb(156 , 220 , 254)&quot;&gt;&amp;nbsp;id&lt;/span&gt;: &lt;span style=&quot;color: rgb(78 , 201 , 176)&quot;&gt;string&lt;/span&gt;&lt;br&gt;&lt;/div&gt;&lt;div&gt;&lt;div style=&quot;font-family: &amp;#34;menlo&amp;#34; , &amp;#34;monaco&amp;#34; , &amp;#34;courier new&amp;#34; , monospace ; line-height: 18px&quot;&gt;&lt;div&gt;  &lt;span style=&quot;color: #9cdcfe&quot;&gt;&amp;nbsp;homeTeamId&lt;/span&gt;: &lt;span style=&quot;color: #4ec9b0&quot;&gt;string&lt;/span&gt;&lt;/div&gt;&lt;div&gt;  &lt;span style=&quot;color: #9cdcfe&quot;&gt;&amp;nbsp;awayTeamId&lt;/span&gt;: &lt;span style=&quot;color: #4ec9b0&quot;&gt;string&lt;/span&gt;&lt;/div&gt;&lt;div&gt;&lt;div style=&quot;line-height: 18px&quot;&gt;&lt;div&gt;&lt;span style=&quot;color: #9cdcfe&quot;&gt;&amp;nbsp;startsAt&lt;/span&gt;: &lt;span style=&quot;color: #4ec9b0&quot;&gt;number&lt;/span&gt;&lt;/div&gt;&lt;div&gt;  &lt;span style=&quot;color: #9cdcfe&quot;&gt;&amp;nbsp;homeTeamScore&lt;/span&gt;: &lt;span style=&quot;color: #4ec9b0&quot;&gt;number&lt;/span&gt;&lt;/div&gt;&lt;div&gt;  &lt;span style=&quot;color: #9cdcfe&quot;&gt;&amp;nbsp;awayTeamScore&lt;/span&gt;: &lt;span style=&quot;color: #4ec9b0&quot;&gt;number&lt;/span&gt;&lt;/div&gt;&lt;div&gt;  &lt;span style=&quot;color: #9cdcfe&quot;&gt;&amp;nbsp;gameStatusDesc&lt;/span&gt;?: &lt;span style=&quot;color: #4ec9b0&quot;&gt;string&lt;/span&gt; | &lt;span style=&quot;color: #4ec9b0&quot;&gt;null&lt;/span&gt;&lt;/div&gt;&lt;div&gt;  &lt;span style=&quot;color: #9cdcfe&quot;&gt;&amp;nbsp;winningTeamId&lt;/span&gt;: &lt;span style=&quot;color: #4ec9b0&quot;&gt;string&lt;/span&gt; | &lt;span style=&quot;color: #4ec9b0&quot;&gt;null&lt;/span&gt;&lt;/div&gt;&lt;div&gt;  &lt;span style=&quot;color: #9cdcfe&quot;&gt;&amp;nbsp;gamePeriod&lt;/span&gt;?: &lt;span style=&quot;color: #4ec9b0&quot;&gt;number&lt;/span&gt; | &lt;span style=&quot;color: #4ec9b0&quot;&gt;null&lt;/span&gt;&lt;/div&gt;&lt;div&gt;  &lt;span style=&quot;color: #9cdcfe&quot;&gt;&amp;nbsp;timeRemaining&lt;/span&gt;?: &lt;span style=&quot;color: #4ec9b0&quot;&gt;string&lt;/span&gt; | &lt;span style=&quot;color: #4ec9b0&quot;&gt;null&lt;/span&gt;&lt;/div&gt;&lt;div&gt;  &lt;span style=&quot;color: #9cdcfe&quot;&gt;&amp;nbsp;tvInfoName&lt;/span&gt;?: &lt;span style=&quot;color: #4ec9b0&quot;&gt;string&lt;/span&gt; | &lt;span style=&quot;color: #4ec9b0&quot;&gt;null&lt;/span&gt;&lt;/div&gt;&lt;div&gt;  &lt;span style=&quot;color: #9cdcfe&quot;&gt;&amp;nbsp;gameAbbrev&lt;/span&gt;?: &lt;span style=&quot;color: #4ec9b0&quot;&gt;string&lt;/span&gt;&lt;/div&gt;&lt;div&gt;&lt;/div&gt;&lt;/div&gt;&lt;/div&gt;&lt;div&gt;&lt;/div&gt;&lt;/div&gt;&lt;/div&gt;&lt;/div&gt;&lt;/div&gt;&lt;/div&gt;" style="verticalAlign=top;align=left;overflow=fill;fontSize=12;fontFamily=Helvetica;html=1;strokeColor=#003366;shadow=1;fillColor=#D4E1F5;fontColor=#003366" parent="1" vertex="1">
          <mxGeometry x="-497.5" y="-840" width="390" height="250" as="geometry" />
        </mxCell>
        <mxCell id="-kxU-s-FRwQV0nLQ8hPZ-32" style="edgeStyle=orthogonalEdgeStyle;rounded=0;orthogonalLoop=1;jettySize=auto;html=1;entryX=0.684;entryY=1.038;entryDx=0;entryDy=0;entryPerimeter=0;fontSize=10;" parent="1" source="VF1F4Plbv53C-rskRq-l-134" target="-kxU-s-FRwQV0nLQ8hPZ-29" edge="1">
          <mxGeometry relative="1" as="geometry" />
        </mxCell>
        <mxCell id="VF1F4Plbv53C-rskRq-l-134" value="&lt;p style=&quot;margin: 4px 0px 0px ; text-align: center ; text-decoration: underline ; font-size: 11px&quot;&gt;&lt;span style=&quot;background-color: rgb(30 , 30 , 30) ; color: rgb(78 , 201 , 176) ; font-family: &amp;#34;menlo&amp;#34; , &amp;#34;monaco&amp;#34; , &amp;#34;courier new&amp;#34; , monospace ; font-size: 12px ; text-align: left&quot;&gt;matchup &amp;lt;IBracketUtilMatchup&amp;gt;&lt;/span&gt;&lt;br&gt;&lt;/p&gt;&lt;hr style=&quot;font-size: 11px&quot;&gt;&lt;div style=&quot;background-color: rgb(30 , 30 , 30) ; font-family: &amp;#34;menlo&amp;#34; , &amp;#34;monaco&amp;#34; , &amp;#34;courier new&amp;#34; , monospace ; line-height: 18px ; font-size: 11px&quot;&gt;&lt;div style=&quot;color: rgb(212 , 212 , 212)&quot;&gt;&lt;div style=&quot;font-family: &amp;#34;menlo&amp;#34; , &amp;#34;monaco&amp;#34; , &amp;#34;courier new&amp;#34; , monospace ; font-size: 12px ; line-height: 18px&quot;&gt;&lt;div&gt;&lt;span style=&quot;color: rgb(156 , 220 , 254)&quot;&gt;&amp;nbsp;id&lt;/span&gt;: &lt;span style=&quot;color: rgb(78 , 201 , 176)&quot;&gt;string (tournamentRound + t + roundOrdinal)&lt;/span&gt;&lt;br&gt;&lt;/div&gt;&lt;div&gt;&lt;div style=&quot;font-family: &amp;#34;menlo&amp;#34; , &amp;#34;monaco&amp;#34; , &amp;#34;courier new&amp;#34; , monospace ; line-height: 18px&quot;&gt;&lt;div&gt;&lt;div style=&quot;line-height: 18px&quot;&gt;&lt;div style=&quot;font-family: &amp;#34;menlo&amp;#34; , &amp;#34;monaco&amp;#34; , &amp;#34;courier new&amp;#34; , monospace ; line-height: 18px&quot;&gt;&lt;div&gt;  &lt;span style=&quot;color: #9cdcfe&quot;&gt;&amp;nbsp;event&lt;/span&gt;: &lt;span style=&quot;color: #4ec9b0&quot;&gt;IBracketUtilMatchupEvent&lt;/span&gt; | &lt;span style=&quot;color: #4ec9b0&quot;&gt;null&lt;/span&gt;&lt;/div&gt;&lt;div&gt;  &lt;span style=&quot;color: #9cdcfe&quot;&gt;&amp;nbsp;winnerId&lt;/span&gt;: &lt;span style=&quot;color: #4ec9b0&quot;&gt;string&lt;/span&gt; | &lt;span style=&quot;color: #4ec9b0&quot;&gt;null&lt;/span&gt;&lt;/div&gt;&lt;div&gt;  &lt;span style=&quot;color: #9cdcfe&quot;&gt;&amp;nbsp;topItemId&lt;/span&gt;: &lt;span style=&quot;color: #4ec9b0&quot;&gt;string&lt;/span&gt; | &lt;span style=&quot;color: #4ec9b0&quot;&gt;null&lt;/span&gt;&lt;/div&gt;&lt;div&gt;  &lt;span style=&quot;color: #9cdcfe&quot;&gt;&amp;nbsp;bottomItemId&lt;/span&gt;: &lt;span style=&quot;color: #4ec9b0&quot;&gt;string&lt;/span&gt; | &lt;span style=&quot;color: #4ec9b0&quot;&gt;null&lt;/span&gt;&lt;/div&gt;&lt;div&gt;  &lt;span style=&quot;color: #9cdcfe&quot;&gt;&amp;nbsp;isPlayin&lt;/span&gt;: &lt;span style=&quot;color: #4ec9b0&quot;&gt;boolean&lt;/span&gt;&lt;/div&gt;&lt;div&gt;  &lt;span style=&quot;color: #9cdcfe&quot;&gt;&amp;nbsp;slotIds&lt;/span&gt;: &lt;span style=&quot;color: #4ec9b0&quot;&gt;number&lt;/span&gt;[]&lt;/div&gt;&lt;div&gt;&lt;div style=&quot;font-family: &amp;#34;menlo&amp;#34; , &amp;#34;monaco&amp;#34; , &amp;#34;courier new&amp;#34; , monospace ; line-height: 18px&quot;&gt;&lt;div&gt;&lt;span style=&quot;color: #9cdcfe&quot;&gt;&amp;nbsp;tournamentDescription&lt;/span&gt;: &lt;span style=&quot;color: #4ec9b0&quot;&gt;string&lt;/span&gt;&lt;/div&gt;&lt;div&gt;  &lt;span style=&quot;color: #9cdcfe&quot;&gt;&amp;nbsp;topItemSeed&lt;/span&gt;: &lt;span style=&quot;color: #4ec9b0&quot;&gt;number&lt;/span&gt; | &lt;span style=&quot;color: #4ec9b0&quot;&gt;null&lt;/span&gt;&lt;/div&gt;&lt;div&gt;  &lt;span style=&quot;color: #9cdcfe&quot;&gt;&amp;nbsp;bottomItemSeed&lt;/span&gt;: &lt;span style=&quot;color: #4ec9b0&quot;&gt;number&lt;/span&gt; | &lt;span style=&quot;color: #4ec9b0&quot;&gt;null&lt;/span&gt;&lt;/div&gt;&lt;div&gt;  &lt;span style=&quot;color: #9cdcfe&quot;&gt;&amp;nbsp;winnerPlaysIntoOrdinal&lt;/span&gt;: &lt;span style=&quot;color: #4ec9b0&quot;&gt;number&lt;/span&gt; | &lt;span style=&quot;color: #4ec9b0&quot;&gt;null&lt;/span&gt;&lt;/div&gt;&lt;div&gt;  &lt;span style=&quot;color: #9cdcfe&quot;&gt;&amp;nbsp;winnerPlaysIntoPosition&lt;/span&gt;: &lt;span style=&quot;color: #4ec9b0&quot;&gt;TMatchupPosition&lt;/span&gt; | &lt;span style=&quot;color: #4ec9b0&quot;&gt;null&lt;/span&gt;&lt;/div&gt;&lt;div&gt;  &lt;span style=&quot;color: #9cdcfe&quot;&gt;&amp;nbsp;groupPosition&lt;/span&gt;: &lt;span style=&quot;color: #4ec9b0&quot;&gt;TBracketRegionPosition&lt;/span&gt;&lt;/div&gt;&lt;div&gt;  &lt;span style=&quot;color: #9cdcfe&quot;&gt;&amp;nbsp;groupName&lt;/span&gt;: &lt;span style=&quot;color: #4ec9b0&quot;&gt;string&lt;/span&gt; | &lt;span style=&quot;color: #4ec9b0&quot;&gt;null&lt;/span&gt;&lt;/div&gt;&lt;div&gt;  &lt;span style=&quot;color: #9cdcfe&quot;&gt;&amp;nbsp;tournamentRoundName&lt;/span&gt;: &lt;span style=&quot;color: #4ec9b0&quot;&gt;string&lt;/span&gt; | &lt;span style=&quot;color: #4ec9b0&quot;&gt;null&lt;/span&gt;&lt;/div&gt;&lt;div&gt;&lt;div style=&quot;line-height: 18px&quot;&gt;&lt;div&gt;&lt;span style=&quot;color: #9cdcfe&quot;&gt;&amp;nbsp;tournamentRound&lt;/span&gt;: &lt;span style=&quot;color: #4ec9b0&quot;&gt;number&lt;/span&gt;&lt;/div&gt;&lt;div&gt;  &lt;span style=&quot;color: #9cdcfe&quot;&gt;&amp;nbsp;roundOrdinal&lt;/span&gt;: &lt;span style=&quot;color: #4ec9b0&quot;&gt;number&lt;/span&gt;&lt;/div&gt;&lt;div&gt;  &lt;span style=&quot;color: #9cdcfe&quot;&gt;&amp;nbsp;tournamentId&lt;/span&gt;: &lt;span style=&quot;color: #4ec9b0&quot;&gt;number&lt;/span&gt;&lt;/div&gt;&lt;/div&gt;&lt;/div&gt;&lt;div&gt;&lt;/div&gt;&lt;/div&gt;&lt;/div&gt;&lt;div&gt;&lt;/div&gt;&lt;/div&gt;&lt;/div&gt;&lt;/div&gt;&lt;div&gt;&lt;div style=&quot;line-height: 18px&quot;&gt;&lt;div&gt;&lt;/div&gt;&lt;/div&gt;&lt;/div&gt;&lt;div&gt;&lt;/div&gt;&lt;/div&gt;&lt;/div&gt;&lt;/div&gt;&lt;/div&gt;&lt;/div&gt;" style="verticalAlign=top;align=left;overflow=fill;fontSize=12;fontFamily=Helvetica;html=1;strokeColor=#003366;shadow=0;fillColor=#D4E1F5;fontColor=#003366" parent="1" vertex="1">
          <mxGeometry x="-10" y="-900" width="410" height="360" as="geometry" />
        </mxCell>
        <mxCell id="-kxU-s-FRwQV0nLQ8hPZ-33" style="edgeStyle=orthogonalEdgeStyle;rounded=0;orthogonalLoop=1;jettySize=auto;html=1;entryX=1.003;entryY=0.534;entryDx=0;entryDy=0;entryPerimeter=0;fontSize=10;exitX=0.608;exitY=-0.009;exitDx=0;exitDy=0;exitPerimeter=0;" parent="1" source="VF1F4Plbv53C-rskRq-l-135" target="-kxU-s-FRwQV0nLQ8hPZ-29" edge="1">
          <mxGeometry relative="1" as="geometry">
            <Array as="points">
              <mxPoint x="393" y="-480" />
              <mxPoint x="470" y="-480" />
              <mxPoint x="470" y="-1040" />
              <mxPoint x="180" y="-1040" />
            </Array>
          </mxGeometry>
        </mxCell>
        <mxCell id="VF1F4Plbv53C-rskRq-l-135" value="&lt;p style=&quot;margin: 4px 0px 0px ; text-align: center ; text-decoration: underline ; font-size: 11px&quot;&gt;&lt;span style=&quot;background-color: rgb(30 , 30 , 30) ; color: rgb(78 , 201 , 176) ; font-family: &amp;#34;menlo&amp;#34; , &amp;#34;monaco&amp;#34; , &amp;#34;courier new&amp;#34; , monospace ; font-size: 12px ; text-align: left&quot;&gt;period &amp;lt;IPickUtilsPeriod&amp;gt;&lt;/span&gt;&lt;/p&gt;&lt;hr style=&quot;font-size: 11px&quot;&gt;&lt;div style=&quot;background-color: rgb(30 , 30 , 30) ; font-family: &amp;#34;menlo&amp;#34; , &amp;#34;monaco&amp;#34; , &amp;#34;courier new&amp;#34; , monospace ; line-height: 18px ; font-size: 11px&quot;&gt;&lt;div style=&quot;color: rgb(212 , 212 , 212)&quot;&gt;&lt;div style=&quot;font-family: &amp;#34;menlo&amp;#34; , &amp;#34;monaco&amp;#34; , &amp;#34;courier new&amp;#34; , monospace ; font-size: 12px ; line-height: 18px&quot;&gt;&lt;div&gt;&lt;span style=&quot;color: rgb(156 , 220 , 254)&quot;&gt;&amp;nbsp;id&lt;/span&gt;: &lt;span style=&quot;color: rgb(78 , 201 , 176)&quot;&gt;string&lt;/span&gt;&lt;br&gt;&lt;/div&gt;&lt;div&gt;&lt;div style=&quot;font-family: &amp;#34;menlo&amp;#34; , &amp;#34;monaco&amp;#34; , &amp;#34;courier new&amp;#34; , monospace ; line-height: 18px&quot;&gt;&lt;div&gt;&lt;div style=&quot;line-height: 18px&quot;&gt;&lt;div style=&quot;font-family: &amp;#34;menlo&amp;#34; , &amp;#34;monaco&amp;#34; , &amp;#34;courier new&amp;#34; , monospace ; line-height: 18px&quot;&gt;&lt;div&gt;&lt;div style=&quot;font-family: &amp;#34;menlo&amp;#34; , &amp;#34;monaco&amp;#34; , &amp;#34;courier new&amp;#34; , monospace ; line-height: 18px&quot;&gt;&lt;div&gt;  &lt;span style=&quot;color: #9cdcfe&quot;&gt;&amp;nbsp;isPickable&lt;/span&gt;: &lt;span style=&quot;color: #4ec9b0&quot;&gt;boolean&lt;/span&gt;&lt;/div&gt;&lt;div&gt;  &lt;span style=&quot;color: #9cdcfe&quot;&gt;&amp;nbsp;order&lt;/span&gt;: &lt;span style=&quot;color: #4ec9b0&quot;&gt;number&lt;/span&gt;&lt;/div&gt;&lt;div&gt;  &lt;span style=&quot;color: #9cdcfe&quot;&gt;&amp;nbsp;tournamentId&lt;/span&gt;?: &lt;span style=&quot;color: #4ec9b0&quot;&gt;number&lt;/span&gt; | &lt;span style=&quot;color: #4ec9b0&quot;&gt;null&lt;/span&gt;&lt;/div&gt;&lt;div&gt;  &lt;span style=&quot;color: #9cdcfe&quot;&gt;&amp;nbsp;locksAt&lt;/span&gt;: &lt;span style=&quot;color: #4ec9b0&quot;&gt;number&lt;/span&gt; | &lt;span style=&quot;color: #4ec9b0&quot;&gt;null&lt;/span&gt;&lt;/div&gt;&lt;div&gt;  &lt;span style=&quot;color: #9cdcfe&quot;&gt;&amp;nbsp;startsAt&lt;/span&gt;: &lt;span style=&quot;color: #4ec9b0&quot;&gt;number&lt;/span&gt;&lt;/div&gt;&lt;div&gt;  &lt;span style=&quot;color: #9cdcfe&quot;&gt;&amp;nbsp;description&lt;/span&gt;?: &lt;span style=&quot;color: #4ec9b0&quot;&gt;string&lt;/span&gt;&lt;/div&gt;&lt;div&gt;  &lt;span style=&quot;color: #9cdcfe&quot;&gt;&amp;nbsp;segment&lt;/span&gt;: &lt;span style=&quot;color: #4ec9b0&quot;&gt;IPickUtilsSegment&lt;/span&gt;&lt;/div&gt;&lt;div&gt;  &lt;span style=&quot;color: #9cdcfe&quot;&gt;&amp;nbsp;pickingDisabledEventIds&lt;/span&gt;: &lt;span style=&quot;color: #4ec9b0&quot;&gt;string&lt;/span&gt;[]&lt;/div&gt;&lt;div&gt;  &lt;span style=&quot;color: #9cdcfe&quot;&gt;&amp;nbsp;isInComingSoon&lt;/span&gt;: &lt;span style=&quot;color: #4ec9b0&quot;&gt;boolean&lt;/span&gt;&lt;/div&gt;&lt;/div&gt;&lt;/div&gt;&lt;div&gt;&lt;div style=&quot;font-family: &amp;#34;menlo&amp;#34; , &amp;#34;monaco&amp;#34; , &amp;#34;courier new&amp;#34; , monospace ; line-height: 18px&quot;&gt;&lt;div&gt;&lt;/div&gt;&lt;/div&gt;&lt;/div&gt;&lt;div&gt;&lt;/div&gt;&lt;/div&gt;&lt;/div&gt;&lt;/div&gt;&lt;div&gt;&lt;div style=&quot;line-height: 18px&quot;&gt;&lt;div&gt;&lt;/div&gt;&lt;/div&gt;&lt;/div&gt;&lt;div&gt;&lt;/div&gt;&lt;/div&gt;&lt;/div&gt;&lt;/div&gt;&lt;/div&gt;&lt;/div&gt;" style="verticalAlign=top;align=left;overflow=fill;fontSize=12;fontFamily=Helvetica;html=1;strokeColor=#003366;shadow=0;fillColor=#D4E1F5;fontColor=#003366" parent="1" vertex="1">
          <mxGeometry x="150" y="-420" width="400" height="217" as="geometry" />
        </mxCell>
        <mxCell id="hYPX-9NePYRcIFWMucl9-109" style="edgeStyle=orthogonalEdgeStyle;rounded=0;orthogonalLoop=1;jettySize=auto;html=1;endArrow=blockThin;endFill=1;" parent="1" source="VF1F4Plbv53C-rskRq-l-136" target="VF1F4Plbv53C-rskRq-l-135" edge="1">
          <mxGeometry relative="1" as="geometry" />
        </mxCell>
        <mxCell id="VF1F4Plbv53C-rskRq-l-136" value="&lt;p style=&quot;margin: 4px 0px 0px ; text-align: center ; text-decoration: underline ; font-size: 11px&quot;&gt;&lt;span style=&quot;background-color: rgb(30 , 30 , 30) ; color: rgb(78 , 201 , 176) ; font-family: &amp;#34;menlo&amp;#34; , &amp;#34;monaco&amp;#34; , &amp;#34;courier new&amp;#34; , monospace ; font-size: 12px ; text-align: left&quot;&gt;segment &amp;lt;IPickUtilsSegment&amp;gt;&lt;/span&gt;&lt;/p&gt;&lt;hr style=&quot;font-size: 11px&quot;&gt;&lt;div style=&quot;background-color: rgb(30 , 30 , 30) ; font-family: &amp;#34;menlo&amp;#34; , &amp;#34;monaco&amp;#34; , &amp;#34;courier new&amp;#34; , monospace ; line-height: 18px ; font-size: 11px&quot;&gt;&lt;div style=&quot;color: rgb(212 , 212 , 212)&quot;&gt;&lt;div style=&quot;font-family: &amp;#34;menlo&amp;#34; , &amp;#34;monaco&amp;#34; , &amp;#34;courier new&amp;#34; , monospace ; font-size: 12px ; line-height: 18px&quot;&gt;&lt;div&gt;&lt;span style=&quot;color: rgb(156 , 220 , 254)&quot;&gt;&amp;nbsp;id&lt;/span&gt;: &lt;span style=&quot;color: rgb(78 , 201 , 176)&quot;&gt;string&lt;/span&gt;&lt;br&gt;&lt;/div&gt;&lt;div&gt;&lt;div style=&quot;font-family: &amp;#34;menlo&amp;#34; , &amp;#34;monaco&amp;#34; , &amp;#34;courier new&amp;#34; , monospace ; line-height: 18px&quot;&gt;&lt;div&gt;&lt;div style=&quot;line-height: 18px&quot;&gt;&lt;div style=&quot;font-family: &amp;#34;menlo&amp;#34; , &amp;#34;monaco&amp;#34; , &amp;#34;courier new&amp;#34; , monospace ; line-height: 18px&quot;&gt;&lt;div&gt;&lt;div style=&quot;font-family: &amp;#34;menlo&amp;#34; , &amp;#34;monaco&amp;#34; , &amp;#34;courier new&amp;#34; , monospace ; line-height: 18px&quot;&gt;&lt;div style=&quot;font-family: &amp;#34;menlo&amp;#34; , &amp;#34;monaco&amp;#34; , &amp;#34;courier new&amp;#34; , monospace ; line-height: 18px&quot;&gt;&lt;div&gt;  &lt;span style=&quot;color: #9cdcfe&quot;&gt;&amp;nbsp;gameType&lt;/span&gt;: &lt;span style=&quot;color: #4ec9b0&quot;&gt;TGameType as &#39;BRACKET&#39;, &#39;PICKEM&#39;&lt;/span&gt;&lt;/div&gt;&lt;div&gt;  &lt;span style=&quot;color: #9cdcfe&quot;&gt;&amp;nbsp;sportType&lt;/span&gt;: &lt;span style=&quot;color: #4ec9b0&quot;&gt;TSportType as &#39;NFL&#39;, &#39;NCAAB&#39;&lt;/span&gt;&lt;/div&gt;&lt;div&gt;&lt;/div&gt;&lt;/div&gt;&lt;/div&gt;&lt;/div&gt;&lt;div&gt;&lt;div style=&quot;font-family: &amp;#34;menlo&amp;#34; , &amp;#34;monaco&amp;#34; , &amp;#34;courier new&amp;#34; , monospace ; line-height: 18px&quot;&gt;&lt;div&gt;&lt;/div&gt;&lt;/div&gt;&lt;/div&gt;&lt;div&gt;&lt;/div&gt;&lt;/div&gt;&lt;/div&gt;&lt;/div&gt;&lt;div&gt;&lt;div style=&quot;line-height: 18px&quot;&gt;&lt;div&gt;&lt;/div&gt;&lt;/div&gt;&lt;/div&gt;&lt;div&gt;&lt;/div&gt;&lt;/div&gt;&lt;/div&gt;&lt;/div&gt;&lt;/div&gt;&lt;/div&gt;" style="verticalAlign=top;align=left;overflow=fill;fontSize=12;fontFamily=Helvetica;html=1;strokeColor=#003366;shadow=0;fillColor=#D4E1F5;fontColor=#003366" parent="1" vertex="1">
          <mxGeometry x="190" y="-60" width="320" height="90" as="geometry" />
        </mxCell>
        <mxCell id="VF1F4Plbv53C-rskRq-l-140" value="&lt;div style=&quot;text-align: left; font-size: 8px;&quot;&gt;&lt;span style=&quot;font-size: 8px;&quot;&gt;actual&lt;/span&gt;&lt;/div&gt;&lt;div style=&quot;text-align: left; font-size: 8px;&quot;&gt;&lt;span style=&quot;font-size: 8px;&quot;&gt;interactive&lt;/span&gt;&lt;/div&gt;&lt;div style=&quot;text-align: left; font-size: 8px;&quot;&gt;&lt;span style=&quot;font-size: 8px;&quot;&gt;interactive-compact&lt;/span&gt;&lt;/div&gt;" style="whiteSpace=wrap;html=1;fontSize=8;dashed=1;dashPattern=1 1;rounded=1;shadow=0;glass=0;sketch=0;" parent="1" vertex="1">
          <mxGeometry x="298" y="565" width="73" height="30" as="geometry" />
        </mxCell>
        <mxCell id="VF1F4Plbv53C-rskRq-l-163" value="&lt;p style=&quot;margin: 4px 0px 0px ; text-decoration: underline ; font-size: 11px&quot;&gt;&lt;/p&gt;&lt;div style=&quot;text-align: center&quot;&gt;&lt;span style=&quot;color: rgb(78 , 201 , 176) ; font-family: &amp;#34;menlo&amp;#34; , &amp;#34;monaco&amp;#34; , &amp;#34;courier new&amp;#34; , monospace ; text-align: left ; background-color: rgb(30 , 30 , 30)&quot;&gt;bracketMapping &amp;lt;IBracketKeyValMapping&amp;gt;&lt;/span&gt;&lt;br&gt;&lt;/div&gt;&lt;hr style=&quot;font-size: 11px&quot;&gt;&lt;div style=&quot;color: rgb(212 , 212 , 212) ; background-color: rgb(30 , 30 , 30) ; font-family: &amp;#34;menlo&amp;#34; , &amp;#34;monaco&amp;#34; , &amp;#34;courier new&amp;#34; , monospace ; line-height: 18px ; font-size: 11px&quot;&gt;&lt;div&gt;&lt;font style=&quot;font-size: 11px&quot;&gt;&lt;div style=&quot;font-family: &amp;#34;menlo&amp;#34; , &amp;#34;monaco&amp;#34; , &amp;#34;courier new&amp;#34; , monospace ; font-size: 12px ; line-height: 18px&quot;&gt;&lt;span style=&quot;color: rgb(156 , 220 , 254)&quot;&gt;&amp;nbsp;interactiveStatus&lt;/span&gt;: &lt;span style=&quot;color: rgb(78 , 201 , 176)&quot;&gt;TBracketMappingInteractiveStatus&lt;/span&gt;&lt;br&gt;&lt;/div&gt;&lt;/font&gt;&lt;/div&gt;&lt;div&gt;&lt;div style=&quot;font-family: &amp;#34;menlo&amp;#34; , &amp;#34;monaco&amp;#34; , &amp;#34;courier new&amp;#34; , monospace ; font-size: 12px ; line-height: 18px&quot;&gt;&lt;div&gt;  &lt;span style=&quot;color: #9cdcfe&quot;&gt;&amp;nbsp;groupPicksStatuses&lt;/span&gt;: &lt;span style=&quot;color: #4ec9b0&quot;&gt;IBracketMapping&lt;/span&gt;[]&lt;/div&gt;&lt;div&gt;  &lt;span style=&quot;color: #9cdcfe&quot;&gt;&amp;nbsp;gameStatusMapping&lt;/span&gt;: &lt;span style=&quot;color: #4ec9b0&quot;&gt;Record&lt;/span&gt;&amp;lt;&lt;span style=&quot;color: #4ec9b0&quot;&gt;string&lt;/span&gt;, &lt;span style=&quot;color: #4ec9b0&quot;&gt;TTournamentGameStatus&lt;/span&gt;&amp;gt;&lt;/div&gt;&lt;div&gt;  &lt;span style=&quot;color: #9cdcfe&quot;&gt;&amp;nbsp;picksSlotAndPosItemId&lt;/span&gt;: &lt;span style=&quot;color: #4ec9b0&quot;&gt;TStringMapping&lt;/span&gt;&lt;/div&gt;&lt;div&gt;  &lt;span style=&quot;color: #9cdcfe&quot;&gt;&amp;nbsp;realSlotAndPosItemId&lt;/span&gt;: &lt;span style=&quot;color: #4ec9b0&quot;&gt;TStringMapping&lt;/span&gt;&lt;/div&gt;&lt;div&gt;  &lt;span style=&quot;color: #9cdcfe&quot;&gt;&amp;nbsp;itemIdPlayinItemNameOverrides&lt;/span&gt;: &lt;span style=&quot;color: #4ec9b0&quot;&gt;TStringMapping&lt;/span&gt;&lt;/div&gt;&lt;div&gt;  &lt;span style=&quot;color: #9cdcfe&quot;&gt;&amp;nbsp;eliminatedItemIds&lt;/span&gt;: &lt;span style=&quot;color: #4ec9b0&quot;&gt;TBoolMapping&lt;/span&gt;&lt;/div&gt;&lt;div&gt;  &lt;span style=&quot;color: #9cdcfe&quot;&gt;&amp;nbsp;matchupById&lt;/span&gt;: &lt;span style=&quot;color: #4ec9b0&quot;&gt;TIdToMatchup&lt;/span&gt;&lt;/div&gt;&lt;div&gt;  &lt;span style=&quot;color: #9cdcfe&quot;&gt;&amp;nbsp;matchupByRound&lt;/span&gt;: &lt;span style=&quot;color: #4ec9b0&quot;&gt;TRoundToMatchup&lt;/span&gt;&lt;/div&gt;&lt;div&gt;  &lt;span style=&quot;color: #9cdcfe&quot;&gt;&amp;nbsp;itemById&lt;/span&gt;: &lt;span style=&quot;color: #4ec9b0&quot;&gt;TIdToItem&lt;/span&gt;&lt;/div&gt;&lt;div&gt;  &lt;span style=&quot;color: #9cdcfe&quot;&gt;&amp;nbsp;seedByItemId&lt;/span&gt;: &lt;span style=&quot;color: #4ec9b0&quot;&gt;TNumberMapping&lt;/span&gt;&lt;/div&gt;&lt;div&gt;  &lt;span style=&quot;color: #9cdcfe&quot;&gt;&amp;nbsp;picks&lt;/span&gt;: &lt;span style=&quot;color: #4ec9b0&quot;&gt;TStringMapping&lt;/span&gt;&lt;/div&gt;&lt;div&gt;  &lt;span style=&quot;color: #9cdcfe&quot;&gt;&amp;nbsp;matchupCacheKeyById&lt;/span&gt;: &lt;span style=&quot;color: #4ec9b0&quot;&gt;TStringMapping&lt;/span&gt;&lt;/div&gt;&lt;div&gt;  &lt;span style=&quot;color: #9cdcfe&quot;&gt;&amp;nbsp;picksCount&lt;/span&gt;: &lt;span style=&quot;color: #4ec9b0&quot;&gt;number&lt;/span&gt;&lt;/div&gt;&lt;div&gt;  &lt;span style=&quot;color: #9cdcfe&quot;&gt;&amp;nbsp;maxPicksCount&lt;/span&gt;: &lt;span style=&quot;color: #4ec9b0&quot;&gt;number&lt;/span&gt;&lt;/div&gt;&lt;div&gt;  &lt;span style=&quot;color: #9cdcfe&quot;&gt;&amp;nbsp;matchupsWithRealEventsCount&lt;/span&gt;: &lt;span style=&quot;color: #4ec9b0&quot;&gt;number&lt;/span&gt;&lt;/div&gt;&lt;div&gt;  &lt;span style=&quot;color: #9cdcfe&quot;&gt;&amp;nbsp;cacheKey&lt;/span&gt;: &lt;span style=&quot;color: #4ec9b0&quot;&gt;string&lt;/span&gt;&lt;/div&gt;&lt;/div&gt;&lt;/div&gt;&lt;/div&gt;" style="verticalAlign=top;align=left;overflow=fill;fontSize=12;fontFamily=Helvetica;html=1;strokeColor=#003366;shadow=0;fillColor=#D4E1F5;fontColor=#003366" parent="1" vertex="1">
          <mxGeometry x="1320" y="626" width="430" height="341" as="geometry" />
        </mxCell>
        <mxCell id="hYPX-9NePYRcIFWMucl9-64" style="edgeStyle=orthogonalEdgeStyle;rounded=0;orthogonalLoop=1;jettySize=auto;html=1;entryX=0.525;entryY=0.994;entryDx=0;entryDy=0;entryPerimeter=0;endArrow=blockThin;endFill=1;" parent="1" source="VF1F4Plbv53C-rskRq-l-165" target="yvn1otVcxnGCeWS-NwdR-74" edge="1">
          <mxGeometry relative="1" as="geometry">
            <Array as="points">
              <mxPoint x="1570" y="200" />
            </Array>
          </mxGeometry>
        </mxCell>
        <mxCell id="VF1F4Plbv53C-rskRq-l-165" value="&lt;p style=&quot;margin: 4px 0px 0px ; text-align: center ; text-decoration: underline ; font-size: 11px&quot;&gt;&lt;/p&gt;&lt;span style=&quot;color: rgb(78 , 201 , 176) ; font-family: &amp;#34;menlo&amp;#34; , &amp;#34;monaco&amp;#34; , &amp;#34;courier new&amp;#34; , monospace&quot;&gt;&lt;div style=&quot;text-align: center&quot;&gt;&lt;span style=&quot;background-color: rgb(0 , 0 , 0)&quot;&gt;bracketUtils &amp;lt;IBracketKeyValMapping&amp;gt;&lt;/span&gt;&lt;/div&gt;&lt;/span&gt;&lt;hr style=&quot;font-size: 11px&quot;&gt;&lt;div style=&quot;color: rgb(212 , 212 , 212) ; background-color: rgb(30 , 30 , 30) ; font-family: &amp;#34;menlo&amp;#34; , &amp;#34;monaco&amp;#34; , &amp;#34;courier new&amp;#34; , monospace ; line-height: 18px ; font-size: 11px&quot;&gt;&lt;div&gt;&lt;font style=&quot;font-size: 11px&quot;&gt;&lt;div style=&quot;font-family: &amp;#34;menlo&amp;#34; , &amp;#34;monaco&amp;#34; , &amp;#34;courier new&amp;#34; , monospace ; font-size: 12px ; line-height: 18px&quot;&gt;&lt;span style=&quot;color: rgb(156 , 220 , 254)&quot;&gt;&amp;nbsp;interactiveStatus&lt;/span&gt;: &lt;span style=&quot;color: rgb(78 , 201 , 176)&quot;&gt;TBracketMappingInteractiveStatus&lt;/span&gt;&lt;br&gt;&lt;/div&gt;&lt;/font&gt;&lt;/div&gt;&lt;div&gt;&lt;div style=&quot;font-family: &amp;#34;menlo&amp;#34; , &amp;#34;monaco&amp;#34; , &amp;#34;courier new&amp;#34; , monospace ; font-size: 12px ; line-height: 18px&quot;&gt;&lt;div&gt;  &lt;span style=&quot;color: #9cdcfe&quot;&gt;&amp;nbsp;groupPicksStatuses&lt;/span&gt;: &lt;span style=&quot;color: #4ec9b0&quot;&gt;IBracketMapping&lt;/span&gt;[]&lt;/div&gt;&lt;div&gt;  &lt;span style=&quot;color: #9cdcfe&quot;&gt;&amp;nbsp;gameStatusMapping&lt;/span&gt;: &lt;span style=&quot;color: #4ec9b0&quot;&gt;Record&lt;/span&gt;&amp;lt;&lt;span style=&quot;color: #4ec9b0&quot;&gt;string&lt;/span&gt;, &lt;span style=&quot;color: #4ec9b0&quot;&gt;TTournamentGameStatus&lt;/span&gt;&amp;gt;&lt;/div&gt;&lt;div&gt;  &lt;span style=&quot;color: #9cdcfe&quot;&gt;&amp;nbsp;picksSlotAndPosItemId&lt;/span&gt;: &lt;span style=&quot;color: #4ec9b0&quot;&gt;TStringMapping&lt;/span&gt;&lt;/div&gt;&lt;div&gt;  &lt;span style=&quot;color: #9cdcfe&quot;&gt;&amp;nbsp;realSlotAndPosItemId&lt;/span&gt;: &lt;span style=&quot;color: #4ec9b0&quot;&gt;TStringMapping&lt;/span&gt;&lt;/div&gt;&lt;div&gt;  &lt;span style=&quot;color: #9cdcfe&quot;&gt;&amp;nbsp;itemIdPlayinItemNameOverrides&lt;/span&gt;: &lt;span style=&quot;color: #4ec9b0&quot;&gt;TStringMapping&lt;/span&gt;&lt;/div&gt;&lt;div&gt;  &lt;span style=&quot;color: #9cdcfe&quot;&gt;&amp;nbsp;eliminatedItemIds&lt;/span&gt;: &lt;span style=&quot;color: #4ec9b0&quot;&gt;TBoolMapping&lt;/span&gt;&lt;/div&gt;&lt;div&gt;  &lt;span style=&quot;color: #9cdcfe&quot;&gt;&amp;nbsp;matchupById&lt;/span&gt;: &lt;span style=&quot;color: #4ec9b0&quot;&gt;TIdToMatchup&lt;/span&gt;&lt;/div&gt;&lt;div&gt;  &lt;span style=&quot;color: #9cdcfe&quot;&gt;&amp;nbsp;matchupByRound&lt;/span&gt;: &lt;span style=&quot;color: #4ec9b0&quot;&gt;TRoundToMatchup&lt;/span&gt;&lt;/div&gt;&lt;div&gt;  &lt;span style=&quot;color: #9cdcfe&quot;&gt;&amp;nbsp;itemById&lt;/span&gt;: &lt;span style=&quot;color: #4ec9b0&quot;&gt;TIdToItem&lt;/span&gt;&lt;/div&gt;&lt;div&gt;  &lt;span style=&quot;color: #9cdcfe&quot;&gt;&amp;nbsp;seedByItemId&lt;/span&gt;: &lt;span style=&quot;color: #4ec9b0&quot;&gt;TNumberMapping&lt;/span&gt;&lt;/div&gt;&lt;div&gt;  &lt;span style=&quot;color: #9cdcfe&quot;&gt;&amp;nbsp;picks&lt;/span&gt;: &lt;span style=&quot;color: #4ec9b0&quot;&gt;TStringMapping&lt;/span&gt;&lt;/div&gt;&lt;div&gt;  &lt;span style=&quot;color: #9cdcfe&quot;&gt;&amp;nbsp;matchupCacheKeyById&lt;/span&gt;: &lt;span style=&quot;color: #4ec9b0&quot;&gt;TStringMapping&lt;/span&gt;&lt;/div&gt;&lt;div&gt;  &lt;span style=&quot;color: #9cdcfe&quot;&gt;&amp;nbsp;picksCount&lt;/span&gt;: &lt;span style=&quot;color: #4ec9b0&quot;&gt;number&lt;/span&gt;&lt;/div&gt;&lt;div&gt;  &lt;span style=&quot;color: #9cdcfe&quot;&gt;&amp;nbsp;maxPicksCount&lt;/span&gt;: &lt;span style=&quot;color: #4ec9b0&quot;&gt;number&lt;/span&gt;&lt;/div&gt;&lt;div&gt;  &lt;span style=&quot;color: #9cdcfe&quot;&gt;&amp;nbsp;matchupsWithRealEventsCount&lt;/span&gt;: &lt;span style=&quot;color: #4ec9b0&quot;&gt;number&lt;/span&gt;&lt;/div&gt;&lt;div&gt;  &lt;span style=&quot;color: #9cdcfe&quot;&gt;&amp;nbsp;cacheKey&lt;/span&gt;: &lt;span style=&quot;color: #4ec9b0&quot;&gt;string&lt;/span&gt;&lt;/div&gt;&lt;/div&gt;&lt;/div&gt;&lt;/div&gt;" style="verticalAlign=top;align=left;overflow=fill;fontSize=12;fontFamily=Helvetica;html=1;strokeColor=#003366;shadow=0;fillColor=#D4E1F5;fontColor=#003366" parent="1" vertex="1">
          <mxGeometry x="1370" y="-250" width="420" height="340" as="geometry" />
        </mxCell>
        <mxCell id="VF1F4Plbv53C-rskRq-l-179" value="&lt;p style=&quot;margin: 4px 0px 0px ; text-align: center ; text-decoration: underline ; font-size: 11px&quot;&gt;&lt;strong&gt;&lt;font style=&quot;font-size: 11px&quot;&gt;bracketPeriodTree&lt;/font&gt;&lt;/strong&gt;&lt;/p&gt;&lt;hr style=&quot;font-size: 11px&quot;&gt;&lt;div style=&quot;color: rgb(212 , 212 , 212) ; background-color: rgb(30 , 30 , 30) ; font-family: &amp;#34;menlo&amp;#34; , &amp;#34;monaco&amp;#34; , &amp;#34;courier new&amp;#34; , monospace ; line-height: 18px ; font-size: 11px&quot;&gt;&lt;div&gt;&lt;font style=&quot;font-size: 11px&quot;&gt;&lt;div style=&quot;font-family: &amp;#34;menlo&amp;#34; , &amp;#34;monaco&amp;#34; , &amp;#34;courier new&amp;#34; , monospace ; font-size: 12px ; line-height: 18px&quot;&gt;&lt;span style=&quot;color: #4ec9b0&quot;&gt;&amp;lt;IBracketKeyValMapping&amp;gt;&lt;/span&gt;&lt;/div&gt;&lt;/font&gt;&lt;/div&gt;&lt;div&gt;&lt;div style=&quot;font-family: &amp;#34;menlo&amp;#34; , &amp;#34;monaco&amp;#34; , &amp;#34;courier new&amp;#34; , monospace ; font-size: 12px ; line-height: 18px&quot;&gt;&lt;br&gt;&lt;/div&gt;&lt;/div&gt;&lt;/div&gt;" style="verticalAlign=top;align=left;overflow=fill;fontSize=12;fontFamily=Helvetica;html=1;strokeColor=#003366;shadow=1;fillColor=#D4E1F5;fontColor=#003366" parent="1" vertex="1">
          <mxGeometry x="1225" y="1110" width="380" height="70" as="geometry" />
        </mxCell>
        <mxCell id="VF1F4Plbv53C-rskRq-l-188" style="edgeStyle=orthogonalEdgeStyle;rounded=0;orthogonalLoop=1;jettySize=auto;html=1;strokeColor=#000000;entryX=0.649;entryY=-0.005;entryDx=0;entryDy=0;entryPerimeter=0;" parent="1" source="VF1F4Plbv53C-rskRq-l-187" target="VF1F4Plbv53C-rskRq-l-191" edge="1">
          <mxGeometry relative="1" as="geometry">
            <mxPoint x="1850" y="-348" as="targetPoint" />
          </mxGeometry>
        </mxCell>
        <mxCell id="VF1F4Plbv53C-rskRq-l-187" value="&lt;p style=&quot;margin: 4px 0px 0px ; text-align: center ; text-decoration: underline ; font-size: 11px&quot;&gt;&lt;strong&gt;&lt;font style=&quot;font-size: 11px&quot;&gt;uiState&lt;/font&gt;&lt;/strong&gt;&lt;/p&gt;&lt;hr style=&quot;font-size: 11px&quot;&gt;&lt;div style=&quot;color: rgb(212 , 212 , 212) ; background-color: rgb(30 , 30 , 30) ; font-family: &amp;#34;menlo&amp;#34; , &amp;#34;monaco&amp;#34; , &amp;#34;courier new&amp;#34; , monospace ; line-height: 18px ; font-size: 11px&quot;&gt;&lt;div&gt;&lt;font style=&quot;font-size: 11px&quot;&gt;&lt;div style=&quot;font-family: &amp;#34;menlo&amp;#34; , &amp;#34;monaco&amp;#34; , &amp;#34;courier new&amp;#34; , monospace ; font-size: 12px ; line-height: 18px&quot;&gt;&lt;span style=&quot;color: #4ec9b0&quot;&gt;&amp;lt;&lt;/span&gt;&lt;span style=&quot;color: rgb(78 , 201 , 176) ; font-family: &amp;#34;menlo&amp;#34; , &amp;#34;monaco&amp;#34; , &amp;#34;courier new&amp;#34; , monospace&quot;&gt;IBracketUiState&lt;/span&gt;&lt;span style=&quot;color: rgb(78 , 201 , 176)&quot;&gt;&amp;gt;&lt;/span&gt;&lt;br&gt;&lt;/div&gt;&lt;/font&gt;&lt;/div&gt;&lt;div&gt;&lt;div style=&quot;font-family: &amp;#34;menlo&amp;#34; , &amp;#34;monaco&amp;#34; , &amp;#34;courier new&amp;#34; , monospace ; font-size: 12px ; line-height: 18px&quot;&gt;&lt;div style=&quot;font-family: &amp;#34;menlo&amp;#34; , &amp;#34;monaco&amp;#34; , &amp;#34;courier new&amp;#34; , monospace ; line-height: 18px&quot;&gt;&lt;div&gt;  &lt;span style=&quot;color: #9cdcfe&quot;&gt;id&lt;/span&gt;: &lt;span style=&quot;color: #4ec9b0&quot;&gt;number&lt;/span&gt;&lt;/div&gt;&lt;div&gt;  &lt;span style=&quot;color: #9cdcfe&quot;&gt;trans&lt;/span&gt;: &lt;span style=&quot;color: #4ec9b0&quot;&gt;boolean&lt;/span&gt;&lt;/div&gt;&lt;div&gt;  &lt;span style=&quot;color: #9cdcfe&quot;&gt;isTouching&lt;/span&gt;: &lt;span style=&quot;color: #4ec9b0&quot;&gt;boolean&lt;/span&gt;&lt;/div&gt;&lt;div&gt;  &lt;span style=&quot;color: #9cdcfe&quot;&gt;enableX&lt;/span&gt;: &lt;span style=&quot;color: #4ec9b0&quot;&gt;boolean&lt;/span&gt;&lt;/div&gt;&lt;div&gt;  &lt;span style=&quot;color: #9cdcfe&quot;&gt;moved&lt;/span&gt;: &lt;span style=&quot;color: #4ec9b0&quot;&gt;boolean&lt;/span&gt;&lt;/div&gt;&lt;div&gt;  &lt;span style=&quot;color: #9cdcfe&quot;&gt;velocityX&lt;/span&gt;: &lt;span style=&quot;color: #4ec9b0&quot;&gt;number&lt;/span&gt;&lt;/div&gt;&lt;div&gt;  &lt;span style=&quot;color: #9cdcfe&quot;&gt;gesture&lt;/span&gt;: &lt;span style=&quot;color: #4ec9b0&quot;&gt;IBracketUiGesture&lt;/span&gt;&lt;/div&gt;&lt;div&gt;  &lt;span style=&quot;color: #9cdcfe&quot;&gt;currentCoords&lt;/span&gt;: &lt;span style=&quot;color: #4ec9b0&quot;&gt;ICurrentCoords&lt;/span&gt;&lt;/div&gt;&lt;div&gt;  &lt;span style=&quot;color: #9cdcfe&quot;&gt;dimensions&lt;/span&gt;: &lt;span style=&quot;color: #4ec9b0&quot;&gt;ISwacketDimensions&lt;/span&gt;&lt;/div&gt;&lt;/div&gt;&lt;/div&gt;&lt;/div&gt;&lt;/div&gt;" style="verticalAlign=top;align=left;overflow=fill;fontSize=12;fontFamily=Helvetica;html=1;strokeColor=#003366;shadow=1;fillColor=#D4E1F5;fontColor=#003366" parent="1" vertex="1">
          <mxGeometry x="2040" y="-908" width="380" height="210" as="geometry" />
        </mxCell>
        <mxCell id="VF1F4Plbv53C-rskRq-l-190" style="edgeStyle=orthogonalEdgeStyle;rounded=0;orthogonalLoop=1;jettySize=auto;html=1;strokeColor=#000000;" parent="1" source="VF1F4Plbv53C-rskRq-l-189" target="VF1F4Plbv53C-rskRq-l-191" edge="1">
          <mxGeometry relative="1" as="geometry">
            <mxPoint x="1790" y="-458" as="targetPoint" />
          </mxGeometry>
        </mxCell>
        <mxCell id="VF1F4Plbv53C-rskRq-l-189" value="&lt;p style=&quot;margin: 4px 0px 0px ; text-align: center ; text-decoration: underline ; font-size: 11px&quot;&gt;&lt;strong&gt;&lt;font style=&quot;font-size: 11px&quot;&gt;swacketState&lt;/font&gt;&lt;/strong&gt;&lt;/p&gt;&lt;hr style=&quot;font-size: 11px&quot;&gt;&lt;div style=&quot;color: rgb(212 , 212 , 212) ; background-color: rgb(30 , 30 , 30) ; font-family: &amp;#34;menlo&amp;#34; , &amp;#34;monaco&amp;#34; , &amp;#34;courier new&amp;#34; , monospace ; line-height: 18px ; font-size: 11px&quot;&gt;&lt;div&gt;&lt;font style=&quot;font-size: 11px&quot;&gt;&lt;div style=&quot;font-family: &amp;#34;menlo&amp;#34; , &amp;#34;monaco&amp;#34; , &amp;#34;courier new&amp;#34; , monospace ; font-size: 12px ; line-height: 18px&quot;&gt;&lt;span style=&quot;color: #4ec9b0&quot;&gt;&amp;lt;&lt;/span&gt;&lt;span style=&quot;color: rgb(78 , 201 , 176) ; font-family: &amp;#34;menlo&amp;#34; , &amp;#34;monaco&amp;#34; , &amp;#34;courier new&amp;#34; , monospace&quot;&gt;ISwacketState&lt;/span&gt;&lt;span style=&quot;color: rgb(78 , 201 , 176)&quot;&gt;&amp;gt;&lt;/span&gt;&lt;br&gt;&lt;/div&gt;&lt;/font&gt;&lt;/div&gt;&lt;div&gt;&lt;div style=&quot;font-family: &amp;#34;menlo&amp;#34; , &amp;#34;monaco&amp;#34; , &amp;#34;courier new&amp;#34; , monospace ; font-size: 12px ; line-height: 18px&quot;&gt;&lt;div style=&quot;font-family: &amp;#34;menlo&amp;#34; , &amp;#34;monaco&amp;#34; , &amp;#34;courier new&amp;#34; , monospace ; line-height: 18px&quot;&gt;&lt;div style=&quot;font-family: &amp;#34;menlo&amp;#34; , &amp;#34;monaco&amp;#34; , &amp;#34;courier new&amp;#34; , monospace ; line-height: 18px&quot;&gt;&lt;div&gt;&lt;span style=&quot;color: #9cdcfe&quot;&gt;currentMatchupCoordinates&lt;/span&gt;: &lt;span style=&quot;color: #4ec9b0&quot;&gt;Record&lt;/span&gt;&amp;lt;&lt;span style=&quot;color: #4ec9b0&quot;&gt;string&lt;/span&gt;, &lt;span style=&quot;color: #4ec9b0&quot;&gt;ISwacketMatchupState&lt;/span&gt;&amp;gt;&lt;/div&gt;&lt;div&gt;  &lt;span style=&quot;color: #9cdcfe&quot;&gt;matchupForRound&lt;/span&gt;: &lt;span style=&quot;color: #4ec9b0&quot;&gt;Record&lt;/span&gt;&amp;lt;&lt;span style=&quot;color: #4ec9b0&quot;&gt;string&lt;/span&gt;, &lt;span style=&quot;color: #4ec9b0&quot;&gt;ISwacketMatchupState&lt;/span&gt;&amp;gt;&lt;/div&gt;&lt;div&gt;  &lt;span style=&quot;color: #9cdcfe&quot;&gt;regionCoords&lt;/span&gt;: &lt;span style=&quot;color: #4ec9b0&quot;&gt;Record&lt;/span&gt;&amp;lt;&lt;span style=&quot;color: #4ec9b0&quot;&gt;string&lt;/span&gt;, &lt;span style=&quot;color: #4ec9b0&quot;&gt;ISwacketMatchupState&lt;/span&gt;&amp;gt;&lt;/div&gt;&lt;div&gt;  &lt;span style=&quot;color: #9cdcfe&quot;&gt;group&lt;/span&gt;: &lt;span style=&quot;color: #4ec9b0&quot;&gt;Record&lt;/span&gt;&amp;lt;&lt;span style=&quot;color: #4ec9b0&quot;&gt;string&lt;/span&gt;, &lt;span style=&quot;color: #4ec9b0&quot;&gt;ISwacketGroupState&lt;/span&gt;&amp;gt;&lt;/div&gt;&lt;div&gt;  &lt;span style=&quot;color: #9cdcfe&quot;&gt;tournamentRound&lt;/span&gt;: &lt;span style=&quot;color: #4ec9b0&quot;&gt;number&lt;/span&gt;&lt;/div&gt;&lt;div&gt;  &lt;span style=&quot;color: #9cdcfe&quot;&gt;animating&lt;/span&gt;: &lt;span style=&quot;color: #4ec9b0&quot;&gt;ISwacketMatchupStateAnimation&lt;/span&gt;[]&lt;/div&gt;&lt;div&gt;  &lt;span style=&quot;color: #9cdcfe&quot;&gt;animations&lt;/span&gt;: &lt;span style=&quot;color: #4ec9b0&quot;&gt;Record&lt;/span&gt;&amp;lt;&lt;span style=&quot;color: #4ec9b0&quot;&gt;string&lt;/span&gt;, &lt;span style=&quot;color: #4ec9b0&quot;&gt;ISwacketMatchupStateAnimation&lt;/span&gt;&amp;gt;&lt;/div&gt;&lt;div&gt;  &lt;span style=&quot;color: #9cdcfe&quot;&gt;height&lt;/span&gt;: &lt;span style=&quot;color: #4ec9b0&quot;&gt;number&lt;/span&gt;&lt;/div&gt;&lt;div&gt;  &lt;span style=&quot;color: #9cdcfe&quot;&gt;maxRoundHeight&lt;/span&gt;: &lt;span style=&quot;color: #4ec9b0&quot;&gt;number&lt;/span&gt;&lt;/div&gt;&lt;div&gt;  &lt;span style=&quot;color: #9cdcfe&quot;&gt;maxPairsInAGroup&lt;/span&gt;: &lt;span style=&quot;color: #4ec9b0&quot;&gt;number&lt;/span&gt;&lt;/div&gt;&lt;div&gt;  &lt;span style=&quot;color: #9cdcfe&quot;&gt;roundOffsets&lt;/span&gt;: &lt;span style=&quot;color: #4ec9b0&quot;&gt;TNumberMapping&lt;/span&gt;&lt;/div&gt;&lt;div&gt;  &lt;span style=&quot;color: #9cdcfe&quot;&gt;lastRoundScrollTops&lt;/span&gt;: &lt;span style=&quot;color: #4ec9b0&quot;&gt;TNumberMapping&lt;/span&gt;&lt;/div&gt;&lt;/div&gt;&lt;/div&gt;&lt;/div&gt;&lt;/div&gt;&lt;/div&gt;" style="verticalAlign=top;align=left;overflow=fill;fontSize=12;fontFamily=Helvetica;html=1;strokeColor=#003366;shadow=1;fillColor=#D4E1F5;fontColor=#003366" parent="1" vertex="1">
          <mxGeometry x="1620" y="-900" width="380" height="260" as="geometry" />
        </mxCell>
        <mxCell id="VF1F4Plbv53C-rskRq-l-191" value="&lt;p style=&quot;margin: 4px 0px 0px ; text-align: center ; text-decoration: underline ; font-size: 11px&quot;&gt;&lt;span style=&quot;font-family: &amp;#34;menlo&amp;#34; , &amp;#34;monaco&amp;#34; , &amp;#34;courier new&amp;#34; , monospace ; font-size: 12px ; text-align: left ; background-color: rgb(30 , 30 , 30) ; color: rgb(78 , 201 , 176)&quot;&gt;base &amp;lt;&lt;/span&gt;&lt;span style=&quot;font-family: &amp;#34;menlo&amp;#34; , &amp;#34;monaco&amp;#34; , &amp;#34;courier new&amp;#34; , monospace ; font-size: 12px ; text-align: left ; background-color: rgb(30 , 30 , 30) ; color: rgb(78 , 201 , 176)&quot;&gt;IBracketTree&lt;/span&gt;&lt;span style=&quot;font-family: &amp;#34;menlo&amp;#34; , &amp;#34;monaco&amp;#34; , &amp;#34;courier new&amp;#34; , monospace ; font-size: 12px ; text-align: left ; background-color: rgb(30 , 30 , 30) ; color: rgb(78 , 201 , 176)&quot;&gt;&amp;gt;&lt;/span&gt;&lt;br&gt;&lt;/p&gt;&lt;hr style=&quot;font-size: 11px&quot;&gt;&lt;div style=&quot;color: rgb(212 , 212 , 212) ; background-color: rgb(30 , 30 , 30) ; font-family: &amp;#34;menlo&amp;#34; , &amp;#34;monaco&amp;#34; , &amp;#34;courier new&amp;#34; , monospace ; line-height: 18px ; font-size: 11px&quot;&gt;&lt;div&gt;&lt;font style=&quot;font-size: 11px&quot;&gt;&lt;div style=&quot;font-family: &amp;#34;menlo&amp;#34; , &amp;#34;monaco&amp;#34; , &amp;#34;courier new&amp;#34; , monospace ; font-size: 12px ; line-height: 18px&quot;&gt;&lt;span style=&quot;color: rgb(156 , 220 , 254)&quot;&gt;&amp;nbsp;rounds&lt;/span&gt;: &lt;span style=&quot;color: rgb(78 , 201 , 176)&quot;&gt;number&lt;/span&gt;[]&lt;br&gt;&lt;/div&gt;&lt;/font&gt;&lt;/div&gt;&lt;div&gt;&lt;div style=&quot;font-family: &amp;#34;menlo&amp;#34; , &amp;#34;monaco&amp;#34; , &amp;#34;courier new&amp;#34; , monospace ; font-size: 12px ; line-height: 18px&quot;&gt;&lt;div style=&quot;font-family: &amp;#34;menlo&amp;#34; , &amp;#34;monaco&amp;#34; , &amp;#34;courier new&amp;#34; , monospace ; line-height: 18px&quot;&gt;&lt;div style=&quot;font-family: &amp;#34;menlo&amp;#34; , &amp;#34;monaco&amp;#34; , &amp;#34;courier new&amp;#34; , monospace ; line-height: 18px&quot;&gt;&lt;div style=&quot;font-family: &amp;#34;menlo&amp;#34; , &amp;#34;monaco&amp;#34; , &amp;#34;courier new&amp;#34; , monospace ; line-height: 18px&quot;&gt;&lt;div&gt;  &lt;span style=&quot;color: #9cdcfe&quot;&gt;&amp;nbsp;playinMatchups&lt;/span&gt;: &lt;span style=&quot;color: #4ec9b0&quot;&gt;IBracketUtilMatchup&lt;/span&gt;[]&lt;/div&gt;&lt;div&gt;  &lt;span style=&quot;color: #9cdcfe&quot;&gt;&amp;nbsp;matchups&lt;/span&gt;: &lt;span style=&quot;color: #4ec9b0&quot;&gt;IBracketUtilMatchup&lt;/span&gt;[]&lt;/div&gt;&lt;div&gt;  &lt;span style=&quot;color: #9cdcfe&quot;&gt;&amp;nbsp;left&lt;/span&gt;: &lt;span style=&quot;color: #4ec9b0&quot;&gt;IBracketUtilMatchup&lt;/span&gt;[][]&lt;/div&gt;&lt;div&gt;  &lt;span style=&quot;color: #9cdcfe&quot;&gt;&amp;nbsp;mid&lt;/span&gt;: &lt;span style=&quot;color: #4ec9b0&quot;&gt;IBracketUtilMatchup&lt;/span&gt;[][]&lt;/div&gt;&lt;div&gt;  &lt;span style=&quot;color: #9cdcfe&quot;&gt;&amp;nbsp;right&lt;/span&gt;: &lt;span style=&quot;color: #4ec9b0&quot;&gt;IBracketUtilMatchup&lt;/span&gt;[][]&lt;/div&gt;&lt;div&gt;  &lt;span style=&quot;color: #9cdcfe&quot;&gt;&amp;nbsp;idToSection&lt;/span&gt;: &lt;span style=&quot;color: #4ec9b0&quot;&gt;TIdToSection&lt;/span&gt;&lt;/div&gt;&lt;div&gt;  &lt;span style=&quot;color: #9cdcfe&quot;&gt;&amp;nbsp;idIsOnRight&lt;/span&gt;: &lt;span style=&quot;color: #4ec9b0&quot;&gt;TBoolMapping&lt;/span&gt;&lt;/div&gt;&lt;div&gt;  &lt;span style=&quot;color: #9cdcfe&quot;&gt;&amp;nbsp;idToCoordinates&lt;/span&gt;: &lt;span style=&quot;color: #4ec9b0&quot;&gt;TIdToCoordinates&lt;/span&gt;&lt;/div&gt;&lt;div&gt;  &lt;span style=&quot;color: #9cdcfe&quot;&gt;&amp;nbsp;nextMatchupById&lt;/span&gt;: &lt;span style=&quot;color: #4ec9b0&quot;&gt;TIdToMatchup&lt;/span&gt;&lt;/div&gt;&lt;div&gt;  &lt;span style=&quot;color: #9cdcfe&quot;&gt;&amp;nbsp;sisterMatchupById&lt;/span&gt;: &lt;span style=&quot;color: #4ec9b0&quot;&gt;TIdToMatchup&lt;/span&gt;&lt;/div&gt;&lt;div&gt;  &lt;span style=&quot;color: #9cdcfe&quot;&gt;&amp;nbsp;idIsStaggered&lt;/span&gt;: &lt;span style=&quot;color: #4ec9b0&quot;&gt;TBoolMapping&lt;/span&gt;&lt;/div&gt;&lt;div&gt;  &lt;span style=&quot;color: #9cdcfe&quot;&gt;&amp;nbsp;groupLabelForMatchupRound&lt;/span&gt;: &lt;span style=&quot;color: #4ec9b0&quot;&gt;Record&lt;/span&gt;&amp;lt;&lt;span style=&quot;color: #4ec9b0&quot;&gt;string&lt;/span&gt;, &lt;span style=&quot;color: #4ec9b0&quot;&gt;IGroupLabelMapping&lt;/span&gt; | &lt;span style=&quot;color: #4ec9b0&quot;&gt;null&lt;/span&gt;&amp;gt;&lt;/div&gt;&lt;div&gt;  &lt;span style=&quot;color: #9cdcfe&quot;&gt;&amp;nbsp;roundNavItemForTournamentRound&lt;/span&gt;: &lt;span style=&quot;color: #4ec9b0&quot;&gt;Record&lt;/span&gt;&amp;lt;&lt;span style=&quot;color: #4ec9b0&quot;&gt;number&lt;/span&gt;, &lt;span style=&quot;color: #4ec9b0&quot;&gt;IRoundNavItem&lt;/span&gt;&amp;gt;&lt;/div&gt;&lt;div&gt;  &lt;span style=&quot;color: #9cdcfe&quot;&gt;&amp;nbsp;matchupCacheKeyById&lt;/span&gt;: &lt;span style=&quot;color: #4ec9b0&quot;&gt;TStringMapping&lt;/span&gt;&lt;/div&gt;&lt;div&gt;  &lt;span style=&quot;color: #9cdcfe&quot;&gt;&amp;nbsp;matchupWidth&lt;/span&gt;: &lt;span style=&quot;color: #4ec9b0&quot;&gt;number&lt;/span&gt;&lt;/div&gt;&lt;div&gt;  &lt;span style=&quot;color: #9cdcfe&quot;&gt;&amp;nbsp;matchupHeight&lt;/span&gt;: &lt;span style=&quot;color: #4ec9b0&quot;&gt;number&lt;/span&gt;&lt;/div&gt;&lt;div&gt;  &lt;span style=&quot;color: #9cdcfe&quot;&gt;&amp;nbsp;totalNumberOfColumns&lt;/span&gt;: &lt;span style=&quot;color: #4ec9b0&quot;&gt;number&lt;/span&gt;&lt;/div&gt;&lt;div&gt;  &lt;span style=&quot;color: #9cdcfe&quot;&gt;&amp;nbsp;totalNumberOfRows&lt;/span&gt;: &lt;span style=&quot;color: #4ec9b0&quot;&gt;number&lt;/span&gt;&lt;/div&gt;&lt;div&gt;  &lt;span style=&quot;color: #9cdcfe&quot;&gt;&amp;nbsp;columnWidth&lt;/span&gt;: &lt;span style=&quot;color: #4ec9b0&quot;&gt;number&lt;/span&gt;&lt;/div&gt;&lt;div&gt;  &lt;span style=&quot;color: #9cdcfe&quot;&gt;&amp;nbsp;rowHeight&lt;/span&gt;: &lt;span style=&quot;color: #4ec9b0&quot;&gt;number&lt;/span&gt;&lt;/div&gt;&lt;div&gt;  &lt;span style=&quot;color: #9cdcfe&quot;&gt;&amp;nbsp;ratioX&lt;/span&gt;: &lt;span style=&quot;color: #4ec9b0&quot;&gt;number&lt;/span&gt;&lt;/div&gt;&lt;div&gt;  &lt;span style=&quot;color: #9cdcfe&quot;&gt;&amp;nbsp;ratioY&lt;/span&gt;: &lt;span style=&quot;color: #4ec9b0&quot;&gt;number&lt;/span&gt;&lt;/div&gt;&lt;div&gt;  &lt;span style=&quot;color: #9cdcfe&quot;&gt;&amp;nbsp;tournamentId&lt;/span&gt;: &lt;span style=&quot;color: #4ec9b0&quot;&gt;number&lt;/span&gt;&lt;/div&gt;&lt;div&gt;  &lt;span style=&quot;color: #9cdcfe&quot;&gt;&amp;nbsp;staggeredRegionHeight&lt;/span&gt;: &lt;span style=&quot;color: #4ec9b0&quot;&gt;number&lt;/span&gt;&lt;/div&gt;&lt;div&gt;  &lt;span style=&quot;color: #9cdcfe&quot;&gt;&amp;nbsp;visualOptions&lt;/span&gt;: &lt;span style=&quot;color: #4ec9b0&quot;&gt;IBracketVisualOptions&lt;/span&gt;&lt;/div&gt;&lt;div&gt;  &lt;span style=&quot;color: #9cdcfe&quot;&gt;&amp;nbsp;swacketWidth&lt;/span&gt;: &lt;span style=&quot;color: #4ec9b0&quot;&gt;number&lt;/span&gt;&lt;/div&gt;&lt;div&gt;  &lt;span style=&quot;color: #9cdcfe&quot;&gt;&amp;nbsp;swacketHeight&lt;/span&gt;: &lt;span style=&quot;color: #4ec9b0&quot;&gt;number&lt;/span&gt;&lt;/div&gt;&lt;div&gt;  &lt;span style=&quot;color: #9cdcfe&quot;&gt;&amp;nbsp;swacketMatchupWidth&lt;/span&gt;: &lt;span style=&quot;color: #4ec9b0&quot;&gt;number&lt;/span&gt;&lt;/div&gt;&lt;div&gt;  &lt;span style=&quot;color: #9cdcfe&quot;&gt;&amp;nbsp;swacketMatchupHeight&lt;/span&gt;: &lt;span style=&quot;color: #4ec9b0&quot;&gt;number&lt;/span&gt;&lt;/div&gt;&lt;div&gt;  &lt;span style=&quot;color: #9cdcfe&quot;&gt;&amp;nbsp;swacketRegionOffsetH&lt;/span&gt;: &lt;span style=&quot;color: #4ec9b0&quot;&gt;number&lt;/span&gt;&lt;/div&gt;&lt;div&gt;  &lt;span style=&quot;color: #9cdcfe&quot;&gt;&amp;nbsp;swacketState&lt;/span&gt;: &lt;span style=&quot;color: #4ec9b0&quot;&gt;ISwacketState&lt;/span&gt;&lt;/div&gt;&lt;div&gt;  &lt;span style=&quot;color: #9cdcfe&quot;&gt;&amp;nbsp;uiState&lt;/span&gt;: &lt;span style=&quot;color: #4ec9b0&quot;&gt;IBracketUiState&lt;/span&gt;&lt;/div&gt;&lt;div&gt;  &lt;span style=&quot;color: #9cdcfe&quot;&gt;&amp;nbsp;cacheKey&lt;/span&gt;: &lt;span style=&quot;color: #4ec9b0&quot;&gt;string&lt;/span&gt;&lt;/div&gt;&lt;/div&gt;&lt;/div&gt;&lt;/div&gt;&lt;/div&gt;&lt;/div&gt;&lt;/div&gt;" style="verticalAlign=top;align=left;overflow=fill;fontSize=12;fontFamily=Helvetica;html=1;strokeColor=#003366;shadow=0;fillColor=#D4E1F5;fontColor=#003366" parent="1" vertex="1">
          <mxGeometry x="1850" y="-557" width="510" height="647" as="geometry" />
        </mxCell>
        <mxCell id="hYPX-9NePYRcIFWMucl9-28" style="edgeStyle=orthogonalEdgeStyle;rounded=0;orthogonalLoop=1;jettySize=auto;html=1;exitX=0.5;exitY=1;exitDx=0;exitDy=0;" parent="1" source="VF1F4Plbv53C-rskRq-l-179" target="VF1F4Plbv53C-rskRq-l-179" edge="1">
          <mxGeometry relative="1" as="geometry" />
        </mxCell>
        <mxCell id="hYPX-9NePYRcIFWMucl9-30" value="" style="shape=or;whiteSpace=wrap;html=1;" parent="1" vertex="1">
          <mxGeometry x="2360" y="-258" width="90" height="330" as="geometry" />
        </mxCell>
        <mxCell id="hYPX-9NePYRcIFWMucl9-31" value="finalRound" style="text;html=1;strokeColor=none;fillColor=none;align=center;verticalAlign=middle;whiteSpace=wrap;rounded=0;" parent="1" vertex="1">
          <mxGeometry x="2430" y="-148" width="80" height="20" as="geometry" />
        </mxCell>
        <mxCell id="hYPX-9NePYRcIFWMucl9-32" value="semisRound" style="text;html=1;strokeColor=none;fillColor=none;align=center;verticalAlign=middle;whiteSpace=wrap;rounded=0;" parent="1" vertex="1">
          <mxGeometry x="2430" y="-118" width="80" height="20" as="geometry" />
        </mxCell>
        <mxCell id="hYPX-9NePYRcIFWMucl9-33" value="baseSection" style="text;html=1;strokeColor=none;fillColor=none;align=center;verticalAlign=middle;whiteSpace=wrap;rounded=0;" parent="1" vertex="1">
          <mxGeometry x="2325" y="-108" width="80" height="20" as="geometry" />
        </mxCell>
        <mxCell id="hYPX-9NePYRcIFWMucl9-36" value="section" style="swimlane;fontStyle=0;childLayout=stackLayout;horizontal=1;startSize=26;fillColor=none;horizontalStack=0;resizeParent=1;resizeParentMax=0;resizeLast=0;collapsible=1;marginBottom=0;" parent="1" vertex="1">
          <mxGeometry x="2460" y="-310" width="100" height="104" as="geometry" />
        </mxCell>
        <mxCell id="hYPX-9NePYRcIFWMucl9-37" value="mid" style="text;strokeColor=none;fillColor=none;align=left;verticalAlign=top;spacingLeft=4;spacingRight=4;overflow=hidden;rotatable=0;points=[[0,0.5],[1,0.5]];portConstraint=eastwest;" parent="hYPX-9NePYRcIFWMucl9-36" vertex="1">
          <mxGeometry y="26" width="100" height="26" as="geometry" />
        </mxCell>
        <mxCell id="hYPX-9NePYRcIFWMucl9-38" value="left" style="text;strokeColor=none;fillColor=none;align=left;verticalAlign=top;spacingLeft=4;spacingRight=4;overflow=hidden;rotatable=0;points=[[0,0.5],[1,0.5]];portConstraint=eastwest;" parent="hYPX-9NePYRcIFWMucl9-36" vertex="1">
          <mxGeometry y="52" width="100" height="26" as="geometry" />
        </mxCell>
        <mxCell id="hYPX-9NePYRcIFWMucl9-39" value="right" style="text;strokeColor=none;fillColor=none;align=left;verticalAlign=top;spacingLeft=4;spacingRight=4;overflow=hidden;rotatable=0;points=[[0,0.5],[1,0.5]];portConstraint=eastwest;" parent="hYPX-9NePYRcIFWMucl9-36" vertex="1">
          <mxGeometry y="78" width="100" height="26" as="geometry" />
        </mxCell>
        <mxCell id="hYPX-9NePYRcIFWMucl9-40" value="processNextRound" style="text;html=1;strokeColor=none;fillColor=none;align=center;verticalAlign=middle;whiteSpace=wrap;rounded=0;" parent="1" vertex="1">
          <mxGeometry x="2450" y="-78" width="80" height="20" as="geometry" />
        </mxCell>
        <mxCell id="hYPX-9NePYRcIFWMucl9-41" style="edgeStyle=orthogonalEdgeStyle;rounded=0;orthogonalLoop=1;jettySize=auto;html=1;exitX=0.5;exitY=0;exitDx=0;exitDy=0;" parent="1" source="hYPX-9NePYRcIFWMucl9-31" target="hYPX-9NePYRcIFWMucl9-31" edge="1">
          <mxGeometry relative="1" as="geometry">
            <Array as="points">
              <mxPoint x="2470" y="-168" />
              <mxPoint x="2570" y="-168" />
              <mxPoint x="2570" y="-38" />
              <mxPoint x="2470" y="-38" />
            </Array>
          </mxGeometry>
        </mxCell>
        <mxCell id="hYPX-9NePYRcIFWMucl9-73" style="edgeStyle=orthogonalEdgeStyle;rounded=0;orthogonalLoop=1;jettySize=auto;html=1;entryX=1.012;entryY=0.158;entryDx=0;entryDy=0;entryPerimeter=0;" parent="1" source="hYPX-9NePYRcIFWMucl9-72" edge="1">
          <mxGeometry relative="1" as="geometry">
            <mxPoint x="1210.1599999999999" y="1428.8780000000002" as="targetPoint" />
          </mxGeometry>
        </mxCell>
        <mxCell id="hYPX-9NePYRcIFWMucl9-72" value="&lt;p style=&quot;margin: 0px ; margin-top: 4px ; text-align: center&quot;&gt;&lt;i&gt;&amp;lt;&lt;/i&gt;&lt;span style=&quot;color: rgb(78 , 201 , 176) ; font-family: &amp;#34;menlo&amp;#34; , &amp;#34;monaco&amp;#34; , &amp;#34;courier new&amp;#34; , monospace ; text-align: left ; background-color: rgb(30 , 30 , 30)&quot;&gt;TBracketMappingInteractiveStatus&lt;/span&gt;&lt;i&gt;&amp;gt;&lt;/i&gt;&lt;br&gt;&lt;span style=&quot;color: rgb(156 , 220 , 254) ; font-family: &amp;#34;menlo&amp;#34; , &amp;#34;monaco&amp;#34; , &amp;#34;courier new&amp;#34; , monospace ; text-align: left ; background-color: rgb(30 , 30 , 30)&quot;&gt;interactiveStatus&lt;/span&gt;&lt;br&gt;&lt;/p&gt;&lt;hr size=&quot;1&quot;&gt;&lt;p style=&quot;margin: 0px ; margin-left: 4px&quot;&gt;+ unrelease&lt;br&gt;+ pickable&lt;/p&gt;&lt;p style=&quot;margin: 0px ; margin-left: 4px&quot;&gt;+ locked&lt;/p&gt;" style="verticalAlign=top;align=left;overflow=fill;fontSize=12;fontFamily=Helvetica;html=1;rounded=0;shadow=0;labelBackgroundColor=none;sketch=0;" parent="1" vertex="1">
          <mxGeometry x="1225" y="1212.5" width="280" height="100" as="geometry" />
        </mxCell>
        <mxCell id="hYPX-9NePYRcIFWMucl9-75" style="edgeStyle=orthogonalEdgeStyle;rounded=0;orthogonalLoop=1;jettySize=auto;html=1;entryX=1.002;entryY=0.303;entryDx=0;entryDy=0;entryPerimeter=0;" parent="1" source="hYPX-9NePYRcIFWMucl9-74" edge="1">
          <mxGeometry relative="1" as="geometry">
            <mxPoint x="1205.8600000000001" y="1478.3229999999999" as="targetPoint" />
          </mxGeometry>
        </mxCell>
        <mxCell id="hYPX-9NePYRcIFWMucl9-74" value="&lt;p style=&quot;margin: 0px ; margin-top: 4px ; text-align: center&quot;&gt;&lt;i&gt;&amp;lt;&lt;/i&gt;&lt;span style=&quot;color: rgb(78 , 201 , 176) ; font-family: &amp;#34;menlo&amp;#34; , &amp;#34;monaco&amp;#34; , &amp;#34;courier new&amp;#34; , monospace ; text-align: left ; background-color: rgb(30 , 30 , 30)&quot;&gt;&amp;nbsp;TStringMapping&amp;nbsp;&lt;/span&gt;&lt;i&gt;&amp;gt;&lt;/i&gt;&lt;br&gt;&lt;span style=&quot;color: rgb(156 , 220 , 254) ; font-family: &amp;#34;menlo&amp;#34; , &amp;#34;monaco&amp;#34; , &amp;#34;courier new&amp;#34; , monospace ; text-align: left ; background-color: rgb(30 , 30 , 30)&quot;&gt;picksSlotAndPosItemId&lt;/span&gt;&lt;br&gt;&lt;/p&gt;&lt;hr size=&quot;1&quot;&gt;&lt;p style=&quot;margin: 0px ; margin-left: 4px&quot;&gt;+ Record&amp;lt;string, string&amp;gt;&lt;br&gt;&lt;/p&gt;&lt;p style=&quot;margin: 0px ; margin-left: 4px&quot;&gt;+ 2t0-top / 2t0-bottom&lt;/p&gt;" style="verticalAlign=top;align=left;overflow=fill;fontSize=12;fontFamily=Helvetica;html=1;rounded=0;shadow=0;labelBackgroundColor=none;sketch=0;" parent="1" vertex="1">
          <mxGeometry x="1225" y="1472.5" width="280" height="100" as="geometry" />
        </mxCell>
        <mxCell id="hYPX-9NePYRcIFWMucl9-77" style="edgeStyle=orthogonalEdgeStyle;rounded=0;orthogonalLoop=1;jettySize=auto;html=1;entryX=1.012;entryY=0.228;entryDx=0;entryDy=0;entryPerimeter=0;" parent="1" source="hYPX-9NePYRcIFWMucl9-76" edge="1">
          <mxGeometry relative="1" as="geometry">
            <Array as="points">
              <mxPoint x="1205" y="1389.5" />
              <mxPoint x="1205" y="1273.5" />
            </Array>
            <mxPoint x="1210.1599999999999" y="1452.748" as="targetPoint" />
          </mxGeometry>
        </mxCell>
        <mxCell id="hYPX-9NePYRcIFWMucl9-76" value="&lt;p style=&quot;margin: 0px ; margin-top: 4px ; text-align: center&quot;&gt;&lt;i&gt;&amp;lt;&lt;/i&gt;&lt;span style=&quot;color: rgb(78 , 201 , 176) ; font-family: &amp;#34;menlo&amp;#34; , &amp;#34;monaco&amp;#34; , &amp;#34;courier new&amp;#34; , monospace ; text-align: left ; background-color: rgb(30 , 30 , 30)&quot;&gt;&amp;nbsp;&lt;/span&gt;&lt;span style=&quot;color: rgb(78 , 201 , 176) ; font-family: &amp;#34;menlo&amp;#34; , &amp;#34;monaco&amp;#34; , &amp;#34;courier new&amp;#34; , monospace ; text-align: left ; background-color: rgb(30 , 30 , 30)&quot;&gt;IBracketMapping&lt;/span&gt;&lt;span style=&quot;color: rgb(78 , 201 , 176) ; font-family: &amp;#34;menlo&amp;#34; , &amp;#34;monaco&amp;#34; , &amp;#34;courier new&amp;#34; , monospace ; text-align: left ; background-color: rgb(30 , 30 , 30)&quot;&gt;&amp;nbsp;&lt;/span&gt;&lt;i&gt;&amp;gt;&lt;/i&gt;&lt;br&gt;&lt;span style=&quot;color: rgb(156 , 220 , 254) ; font-family: &amp;#34;menlo&amp;#34; , &amp;#34;monaco&amp;#34; , &amp;#34;courier new&amp;#34; , monospace ; text-align: left ; background-color: rgb(30 , 30 , 30)&quot;&gt;groupPicksStatuses&lt;/span&gt;&lt;br&gt;&lt;/p&gt;&lt;hr size=&quot;1&quot;&gt;&lt;p style=&quot;margin: 0px ; margin-left: 4px&quot;&gt;+ label&lt;br&gt;&lt;/p&gt;&lt;p style=&quot;margin: 0px ; margin-left: 4px&quot;&gt;+ position&lt;/p&gt;&lt;p style=&quot;margin: 0px ; margin-left: 4px&quot;&gt;+ picksCount&lt;/p&gt;&lt;p style=&quot;margin: 0px ; margin-left: 4px&quot;&gt;+ maxPicksCount&lt;/p&gt;&lt;p style=&quot;margin: 0px ; margin-left: 4px&quot;&gt;+ goToMatchupId&lt;/p&gt;" style="verticalAlign=top;align=left;overflow=fill;fontSize=12;fontFamily=Helvetica;html=1;rounded=0;shadow=0;labelBackgroundColor=none;sketch=0;" parent="1" vertex="1">
          <mxGeometry x="1225" y="1327.5" width="280" height="125" as="geometry" />
        </mxCell>
        <mxCell id="hYPX-9NePYRcIFWMucl9-78" value="buildCoordinateMap" style="rounded=1;whiteSpace=wrap;html=1;arcSize=40;fontColor=#000000;fillColor=#ffffc0;strokeColor=#ff0000;shadow=0;labelBackgroundColor=none;sketch=0;" parent="1" vertex="1">
          <mxGeometry x="1010" y="792" width="120" height="40" as="geometry" />
        </mxCell>
        <mxCell id="hYPX-9NePYRcIFWMucl9-83" style="edgeStyle=orthogonalEdgeStyle;rounded=0;orthogonalLoop=1;jettySize=auto;html=1;entryX=1.004;entryY=0.175;entryDx=0;entryDy=0;entryPerimeter=0;" parent="1" source="hYPX-9NePYRcIFWMucl9-82" target="VF1F4Plbv53C-rskRq-l-191" edge="1">
          <mxGeometry relative="1" as="geometry" />
        </mxCell>
        <mxCell id="hYPX-9NePYRcIFWMucl9-82" value="&lt;p style=&quot;margin: 0px ; margin-top: 4px ; text-align: center&quot;&gt;&lt;i&gt;&amp;lt;&lt;/i&gt;&lt;span style=&quot;color: rgb(78 , 201 , 176) ; font-family: &amp;#34;menlo&amp;#34; , &amp;#34;monaco&amp;#34; , &amp;#34;courier new&amp;#34; , monospace ; text-align: left ; background-color: rgb(30 , 30 , 30)&quot;&gt;&amp;nbsp;&lt;/span&gt;&lt;span style=&quot;color: rgb(78 , 201 , 176) ; font-family: &amp;#34;menlo&amp;#34; , &amp;#34;monaco&amp;#34; , &amp;#34;courier new&amp;#34; , monospace ; text-align: left ; background-color: rgb(30 , 30 , 30)&quot;&gt;TIdToCoordinates&lt;/span&gt;&lt;i&gt;&amp;gt;&lt;/i&gt;&lt;br&gt;&lt;span style=&quot;color: rgb(156 , 220 , 254) ; font-family: &amp;#34;menlo&amp;#34; , &amp;#34;monaco&amp;#34; , &amp;#34;courier new&amp;#34; , monospace ; text-align: left ; background-color: rgb(30 , 30 , 30)&quot;&gt;idToCoordinates&lt;/span&gt;&lt;br&gt;&lt;/p&gt;&lt;hr size=&quot;1&quot;&gt;&lt;p style=&quot;margin: 0px 0px 0px 4px&quot;&gt;+ Record&amp;lt;string, ICoordinate&amp;gt;&lt;br&gt;&lt;/p&gt;&lt;p style=&quot;margin: 0px 0px 0px 4px&quot;&gt;&lt;br&gt;&lt;/p&gt;" style="verticalAlign=top;align=left;overflow=fill;fontSize=12;fontFamily=Helvetica;html=1;rounded=0;shadow=0;labelBackgroundColor=none;sketch=0;" parent="1" vertex="1">
          <mxGeometry x="2440" y="-558" width="280" height="70" as="geometry" />
        </mxCell>
        <mxCell id="hYPX-9NePYRcIFWMucl9-85" style="edgeStyle=orthogonalEdgeStyle;rounded=0;orthogonalLoop=1;jettySize=auto;html=1;entryX=0.5;entryY=1;entryDx=0;entryDy=0;" parent="1" source="hYPX-9NePYRcIFWMucl9-84" target="hYPX-9NePYRcIFWMucl9-82" edge="1">
          <mxGeometry relative="1" as="geometry" />
        </mxCell>
        <mxCell id="hYPX-9NePYRcIFWMucl9-84" value="&lt;p style=&quot;margin: 0px ; margin-top: 4px ; text-align: center&quot;&gt;&lt;i&gt;&amp;lt;&lt;/i&gt;&lt;span style=&quot;color: rgb(78 , 201 , 176) ; font-family: &amp;#34;menlo&amp;#34; , &amp;#34;monaco&amp;#34; , &amp;#34;courier new&amp;#34; , monospace ; text-align: left ; background-color: rgb(30 , 30 , 30)&quot;&gt;&amp;nbsp;&lt;/span&gt;&lt;span style=&quot;color: rgb(78 , 201 , 176) ; font-family: &amp;#34;menlo&amp;#34; , &amp;#34;monaco&amp;#34; , &amp;#34;courier new&amp;#34; , monospace ; text-align: left ; background-color: rgb(30 , 30 , 30)&quot;&gt;ICoordinate&lt;/span&gt;&lt;i&gt;&amp;gt;&lt;/i&gt;&lt;br&gt;&lt;/p&gt;&lt;hr size=&quot;1&quot;&gt;&lt;p style=&quot;margin: 0px 0px 0px 4px&quot;&gt;+ x: number&lt;br&gt;&lt;/p&gt;&lt;p style=&quot;margin: 0px 0px 0px 4px&quot;&gt;+ y: number&lt;/p&gt;&lt;p style=&quot;margin: 0px 0px 0px 4px&quot;&gt;+ nx: number&lt;/p&gt;&lt;p style=&quot;margin: 0px 0px 0px 4px&quot;&gt;+ ny: number&lt;/p&gt;&amp;nbsp;&lt;span&gt;+ customWidth?: number&lt;/span&gt;&lt;br&gt;&lt;p style=&quot;margin: 0px 0px 0px 4px&quot;&gt;&lt;br&gt;&lt;/p&gt;" style="verticalAlign=top;align=left;overflow=fill;fontSize=12;fontFamily=Helvetica;html=1;rounded=0;shadow=0;labelBackgroundColor=none;sketch=0;" parent="1" vertex="1">
          <mxGeometry x="2440" y="-458" width="280" height="100" as="geometry" />
        </mxCell>
        <mxCell id="-kxU-s-FRwQV0nLQ8hPZ-8" style="edgeStyle=orthogonalEdgeStyle;rounded=0;orthogonalLoop=1;jettySize=auto;html=1;entryX=0.5;entryY=1;entryDx=0;entryDy=0;fontSize=10;" parent="1" source="hYPX-9NePYRcIFWMucl9-96" target="hYPX-9NePYRcIFWMucl9-110" edge="1">
          <mxGeometry relative="1" as="geometry" />
        </mxCell>
        <mxCell id="-kxU-s-FRwQV0nLQ8hPZ-23" style="edgeStyle=orthogonalEdgeStyle;rounded=0;orthogonalLoop=1;jettySize=auto;html=1;fontSize=10;" parent="1" source="hYPX-9NePYRcIFWMucl9-96" target="-kxU-s-FRwQV0nLQ8hPZ-19" edge="1">
          <mxGeometry relative="1" as="geometry" />
        </mxCell>
        <mxCell id="hYPX-9NePYRcIFWMucl9-96" value="&lt;p style=&quot;margin: 4px 0px 0px ; text-align: center ; text-decoration: underline ; font-size: 11px&quot;&gt;&lt;span style=&quot;background-color: rgb(30 , 30 , 30) ; color: rgb(78 , 201 , 176) ; font-family: &amp;#34;menlo&amp;#34; , &amp;#34;monaco&amp;#34; , &amp;#34;courier new&amp;#34; , monospace ; font-size: 12px ; text-align: left&quot;&gt;bracketFeedGames &amp;lt;IBracketGroupGameExpanded&amp;gt;&lt;/span&gt;&lt;br&gt;&lt;/p&gt;&lt;hr style=&quot;font-size: 11px&quot;&gt;&lt;div style=&quot;background-color: rgb(30 , 30 , 30) ; font-family: &amp;#34;menlo&amp;#34; , &amp;#34;monaco&amp;#34; , &amp;#34;courier new&amp;#34; , monospace ; line-height: 18px ; font-size: 11px&quot;&gt;&lt;div style=&quot;color: rgb(212 , 212 , 212)&quot;&gt;&lt;div style=&quot;font-family: &amp;#34;menlo&amp;#34; , &amp;#34;monaco&amp;#34; , &amp;#34;courier new&amp;#34; , monospace ; font-size: 12px ; line-height: 18px&quot;&gt;&lt;div style=&quot;line-height: 18px&quot;&gt;&lt;div&gt;&lt;span style=&quot;color: rgb(156 , 220 , 254)&quot;&gt;&amp;nbsp;gameId&lt;/span&gt;?:&amp;nbsp;&lt;span style=&quot;color: rgb(78 , 201 , 176)&quot;&gt;number&lt;/span&gt;&lt;/div&gt;&lt;div&gt;&lt;span style=&quot;color: rgb(156 , 220 , 254)&quot;&gt;&amp;nbsp;period&lt;/span&gt;?:&amp;nbsp;&lt;span style=&quot;color: rgb(78 , 201 , 176)&quot;&gt;number&lt;/span&gt;&lt;/div&gt;&lt;div&gt;&lt;span style=&quot;color: rgb(156 , 220 , 254)&quot;&gt;&amp;nbsp;homeScore&lt;/span&gt;?:&amp;nbsp;&lt;span style=&quot;color: rgb(78 , 201 , 176)&quot;&gt;number&lt;/span&gt;&lt;/div&gt;&lt;div&gt;&lt;span style=&quot;color: rgb(156 , 220 , 254)&quot;&gt;&amp;nbsp;awayScore&lt;/span&gt;?:&amp;nbsp;&lt;span style=&quot;color: rgb(78 , 201 , 176)&quot;&gt;number&lt;/span&gt;&lt;/div&gt;&lt;div&gt;&lt;span style=&quot;color: rgb(156 , 220 , 254)&quot;&gt;&amp;nbsp;homeTeamId&lt;/span&gt;?:&amp;nbsp;&lt;span style=&quot;color: rgb(78 , 201 , 176)&quot;&gt;number&lt;/span&gt;&lt;/div&gt;&lt;div&gt;&lt;span style=&quot;color: rgb(156 , 220 , 254)&quot;&gt;&amp;nbsp;awayTeamId&lt;/span&gt;?:&amp;nbsp;&lt;span style=&quot;color: rgb(78 , 201 , 176)&quot;&gt;number&lt;/span&gt;&lt;/div&gt;&lt;div&gt;&lt;span style=&quot;color: rgb(156 , 220 , 254)&quot;&gt;&amp;nbsp;timeRemaining&lt;/span&gt;?:&amp;nbsp;&lt;span style=&quot;color: rgb(78 , 201 , 176)&quot;&gt;string&lt;/span&gt;&lt;/div&gt;&lt;div&gt;&lt;span style=&quot;color: rgb(156 , 220 , 254)&quot;&gt;&amp;nbsp;advancement&lt;/span&gt;:&amp;nbsp;&lt;span style=&quot;color: rgb(78 , 201 , 176)&quot;&gt;Advancement&lt;/span&gt;&lt;/div&gt;&lt;div&gt;&lt;span style=&quot;color: rgb(156 , 220 , 254)&quot;&gt;&amp;nbsp;location&lt;/span&gt;?:&amp;nbsp;&lt;span style=&quot;color: rgb(78 , 201 , 176)&quot;&gt;string&lt;/span&gt;&lt;/div&gt;&lt;div&gt;&lt;span style=&quot;color: rgb(156 , 220 , 254)&quot;&gt;&amp;nbsp;gameAbbrev&lt;/span&gt;?:&amp;nbsp;&lt;span style=&quot;color: rgb(78 , 201 , 176)&quot;&gt;string&lt;/span&gt;&lt;/div&gt;&lt;div&gt;&lt;span style=&quot;color: rgb(156 , 220 , 254)&quot;&gt;&amp;nbsp;gameParticipants&lt;/span&gt;:&amp;nbsp;&lt;span style=&quot;color: rgb(78 , 201 , 176)&quot;&gt;GameParticipant&lt;/span&gt;[]&lt;/div&gt;&lt;/div&gt;&lt;div&gt;&lt;span style=&quot;color: rgb(156 , 220 , 254)&quot;&gt;&amp;nbsp;status&lt;/span&gt;?:&amp;nbsp;&lt;span style=&quot;color: rgb(78 , 201 , 176)&quot;&gt;GameStatusType&lt;/span&gt;&lt;span style=&quot;color: rgb(156 , 220 , 254)&quot;&gt;&amp;nbsp;&lt;/span&gt;&lt;/div&gt;&lt;div&gt;&lt;span style=&quot;color: rgb(156 , 220 , 254)&quot;&gt;&amp;nbsp;groupName&lt;/span&gt;:&amp;nbsp;&lt;span style=&quot;color: rgb(78 , 201 , 176)&quot;&gt;string&lt;/span&gt;&lt;/div&gt;&lt;div&gt;&lt;span style=&quot;color: rgb(156 , 220 , 254)&quot;&gt;&amp;nbsp;groupPosition&lt;/span&gt;:&amp;nbsp;&lt;span style=&quot;color: rgb(78 , 201 , 176)&quot;&gt;Group&lt;/span&gt;[&lt;span style=&quot;color: rgb(206 , 145 , 120)&quot;&gt;&quot;position&quot;&lt;/span&gt;]&lt;/div&gt;&lt;div&gt;&lt;span style=&quot;color: rgb(156 , 220 , 254)&quot;&gt;&amp;nbsp;tournamentRoundName&lt;/span&gt;:&amp;nbsp;&lt;span style=&quot;color: rgb(78 , 201 , 176)&quot;&gt;string&lt;/span&gt;&lt;/div&gt;&lt;div&gt;&lt;span style=&quot;color: rgb(156 , 220 , 254)&quot;&gt;&amp;nbsp;tournamentRound&lt;/span&gt;:&amp;nbsp;&lt;span style=&quot;color: rgb(78 , 201 , 176)&quot;&gt;number&lt;/span&gt;&lt;/div&gt;&lt;div&gt;&lt;span style=&quot;color: rgb(156 , 220 , 254)&quot;&gt;&amp;nbsp;roundOrdinal&lt;/span&gt;:&amp;nbsp;&lt;span style=&quot;color: rgb(78 , 201 , 176)&quot;&gt;number&lt;/span&gt;&lt;/div&gt;&lt;div&gt;&lt;span style=&quot;color: rgb(156 , 220 , 254)&quot;&gt;&amp;nbsp;isPlayin&lt;/span&gt;?:&amp;nbsp;&lt;span style=&quot;color: rgb(78 , 201 , 176)&quot;&gt;boolean&lt;/span&gt;&lt;/div&gt;&lt;/div&gt;&lt;/div&gt;&lt;div&gt;&lt;div style=&quot;color: rgb(212 , 212 , 212) ; font-family: &amp;#34;menlo&amp;#34; , &amp;#34;monaco&amp;#34; , &amp;#34;courier new&amp;#34; , monospace ; font-size: 12px ; line-height: 18px&quot;&gt;&lt;div&gt;&lt;/div&gt;&lt;/div&gt;&lt;/div&gt;&lt;/div&gt;" style="verticalAlign=top;align=left;overflow=fill;fontSize=12;fontFamily=Helvetica;html=1;strokeColor=#003366;shadow=0;fillColor=#D4E1F5;fontColor=#003366" parent="1" vertex="1">
          <mxGeometry x="-380" y="-230" width="350" height="360" as="geometry" />
        </mxCell>
        <mxCell id="hYPX-9NePYRcIFWMucl9-99" style="edgeStyle=orthogonalEdgeStyle;rounded=0;orthogonalLoop=1;jettySize=auto;html=1;entryX=0;entryY=0.333;entryDx=0;entryDy=0;entryPerimeter=0;exitX=0.5;exitY=1;exitDx=0;exitDy=0;" parent="1" source="hYPX-9NePYRcIFWMucl9-98" target="VF1F4Plbv53C-rskRq-l-147" edge="1">
          <mxGeometry relative="1" as="geometry" />
        </mxCell>
        <mxCell id="hYPX-9NePYRcIFWMucl9-98" value="isTree: true" style="html=1;align=center;verticalAlign=top;rounded=1;absoluteArcSize=1;arcSize=10;dashed=0;shadow=0;labelBackgroundColor=none;sketch=0;" parent="1" vertex="1">
          <mxGeometry x="-460" y="960" width="140" height="40" as="geometry" />
        </mxCell>
        <mxCell id="hYPX-9NePYRcIFWMucl9-100" value="isStaggered&lt;br&gt;isThreeSectioned&lt;br&gt;isFluidWidth&lt;br&gt;calculateHeight&lt;br&gt;builtCoordMap" style="html=1;align=center;verticalAlign=top;rounded=1;absoluteArcSize=1;arcSize=10;dashed=0;shadow=0;labelBackgroundColor=none;sketch=0;" parent="1" vertex="1">
          <mxGeometry x="-390" y="1200" width="140" height="100" as="geometry" />
        </mxCell>
        <mxCell id="hYPX-9NePYRcIFWMucl9-103" value="" style="edgeStyle=orthogonalEdgeStyle;rounded=0;orthogonalLoop=1;jettySize=auto;html=1;" parent="1" source="hYPX-9NePYRcIFWMucl9-101" target="hYPX-9NePYRcIFWMucl9-98" edge="1">
          <mxGeometry relative="1" as="geometry">
            <Array as="points">
              <mxPoint x="-390" y="710" />
            </Array>
          </mxGeometry>
        </mxCell>
        <mxCell id="hYPX-9NePYRcIFWMucl9-101" value="&lt;p style=&quot;margin: 0px ; margin-top: 6px ; text-align: center&quot;&gt;&lt;b&gt;FullBracket&lt;/b&gt;&lt;/p&gt;&lt;p style=&quot;margin: 0px ; margin-top: 6px ; text-align: center&quot;&gt;&lt;span style=&quot;color: rgb(78 , 201 , 176) ; background-color: rgb(30 , 30 , 30) ; font-family: &amp;#34;menlo&amp;#34; , &amp;#34;monaco&amp;#34; , &amp;#34;courier new&amp;#34; , monospace ; text-align: left&quot;&gt;&amp;lt;IFullBracket&amp;gt;&lt;/span&gt;&lt;/p&gt;&lt;hr&gt;&lt;div style=&quot;color: rgb(212 , 212 , 212) ; background-color: rgb(30 , 30 , 30) ; font-family: &amp;#34;menlo&amp;#34; , &amp;#34;monaco&amp;#34; , &amp;#34;courier new&amp;#34; , monospace ; line-height: 18px&quot;&gt;&lt;div&gt;&lt;span style=&quot;color: #9cdcfe&quot;&gt;&amp;nbsp;bracketData&lt;/span&gt;: &lt;span style=&quot;color: #4ec9b0&quot;&gt;ISdfBracketResponse&lt;/span&gt;&lt;/div&gt;&lt;div&gt;  &lt;span style=&quot;color: #9cdcfe&quot;&gt;&amp;nbsp;useRealCard&lt;/span&gt;?: &lt;span style=&quot;color: #4ec9b0&quot;&gt;boolean&lt;/span&gt;&lt;/div&gt;&lt;div&gt;  &lt;span style=&quot;color: #9cdcfe&quot;&gt;&amp;nbsp;picksStorageKey&lt;/span&gt;?: &lt;span style=&quot;color: #4ec9b0&quot;&gt;string&lt;/span&gt;&lt;/div&gt;&lt;div&gt;  &lt;span style=&quot;color: #9cdcfe&quot;&gt;&amp;nbsp;useLocalStorageForPicks&lt;/span&gt;?: &lt;span style=&quot;color: #4ec9b0&quot;&gt;boolean&lt;/span&gt;&lt;/div&gt;&lt;div&gt;  &lt;span style=&quot;color: #9cdcfe&quot;&gt;&amp;nbsp;variant&lt;/span&gt;: &lt;span style=&quot;color: #ce9178&quot;&gt;&quot;media&quot;&lt;/span&gt; | &lt;span style=&quot;color: #ce9178&quot;&gt;&quot;picks&quot;&lt;/span&gt;&lt;/div&gt;&lt;div&gt;  &lt;span style=&quot;color: #9cdcfe&quot;&gt;&amp;nbsp;matchUpAnalysisData&lt;/span&gt;?: &lt;span style=&quot;color: #4ec9b0&quot;&gt;MatchUpAnalysisData&lt;/span&gt;&lt;/div&gt;&lt;div&gt;  &lt;span style=&quot;color: #9cdcfe&quot;&gt;&amp;nbsp;autoFillData&lt;/span&gt;: &lt;span style=&quot;color: #4ec9b0&quot;&gt;IAutoFillData&lt;/span&gt;&lt;/div&gt;&lt;div&gt;  &lt;span style=&quot;color: #dcdcaa&quot;&gt;&amp;nbsp;mapAutoFillOption&lt;/span&gt;?: (&lt;span style=&quot;color: #9cdcfe&quot;&gt;string&lt;/span&gt;) &lt;span style=&quot;color: #569cd6&quot;&gt;=&amp;gt;&lt;/span&gt; &lt;span style=&quot;color: #4ec9b0&quot;&gt;string&lt;/span&gt;&lt;/div&gt;&lt;div&gt;  &lt;span style=&quot;color: #9cdcfe&quot;&gt;&amp;nbsp;initialMatchupId&lt;/span&gt;?: &lt;span style=&quot;color: #4ec9b0&quot;&gt;string&lt;/span&gt;&lt;/div&gt;&lt;div&gt;  &lt;span style=&quot;color: #9cdcfe&quot;&gt;&amp;nbsp;toolbar&lt;/span&gt;?: &lt;span style=&quot;color: #4ec9b0&quot;&gt;React&lt;/span&gt;.&lt;span style=&quot;color: #4ec9b0&quot;&gt;ReactNode&lt;/span&gt;&lt;/div&gt;&lt;div&gt;  &lt;span style=&quot;color: #dcdcaa&quot;&gt;&amp;nbsp;onClearPicks&lt;/span&gt;: () &lt;span style=&quot;color: #569cd6&quot;&gt;=&amp;gt;&lt;/span&gt; &lt;span style=&quot;color: #4ec9b0&quot;&gt;Promise&lt;/span&gt;&amp;lt;&lt;span style=&quot;color: #4ec9b0&quot;&gt;unknown&lt;/span&gt;&amp;gt; | &lt;span style=&quot;color: #4ec9b0&quot;&gt;void&lt;/span&gt;&lt;/div&gt;&lt;div&gt;  &lt;span style=&quot;color: #dcdcaa&quot;&gt;&amp;nbsp;onSavePicks&lt;/span&gt;?: () &lt;span style=&quot;color: #569cd6&quot;&gt;=&amp;gt;&lt;/span&gt; &lt;span style=&quot;color: #4ec9b0&quot;&gt;Promise&lt;/span&gt;&amp;lt;&lt;span style=&quot;color: #4ec9b0&quot;&gt;unknown&lt;/span&gt;&amp;gt; | &lt;span style=&quot;color: #4ec9b0&quot;&gt;void&lt;/span&gt;&lt;/div&gt;&lt;div&gt;  &lt;span style=&quot;color: #9cdcfe&quot;&gt;&amp;nbsp;environment&lt;/span&gt;?: &lt;span style=&quot;color: #4ec9b0&quot;&gt;TPicksEnv&lt;/span&gt;&lt;/div&gt;&lt;div&gt;  &lt;span style=&quot;color: #dcdcaa&quot;&gt;&amp;nbsp;getOnSubmitFlowRedirectUrl&lt;/span&gt;?: () &lt;span style=&quot;color: #569cd6&quot;&gt;=&amp;gt;&lt;/span&gt; &lt;span style=&quot;color: #4ec9b0&quot;&gt;Promise&lt;/span&gt;&amp;lt;&lt;span style=&quot;color: #4ec9b0&quot;&gt;string&lt;/span&gt;&amp;gt;&lt;/div&gt;&lt;div&gt;  &lt;span style=&quot;color: #9cdcfe&quot;&gt;&amp;nbsp;gameInstanceUid&lt;/span&gt;?: &lt;span style=&quot;color: #4ec9b0&quot;&gt;string&lt;/span&gt;&lt;/div&gt;&lt;/div&gt;" style="align=left;overflow=fill;html=1;dropTarget=0;rounded=0;shadow=0;labelBackgroundColor=none;sketch=0;fillColor=#dae8fc;strokeColor=#6c8ebf;" parent="1" vertex="1">
          <mxGeometry x="-170" y="473.75" width="440" height="330" as="geometry" />
        </mxCell>
        <mxCell id="hYPX-9NePYRcIFWMucl9-102" value="" style="shape=component;jettyWidth=8;jettyHeight=4;" parent="hYPX-9NePYRcIFWMucl9-101" vertex="1">
          <mxGeometry x="1" width="20" height="20" relative="1" as="geometry">
            <mxPoint x="-30" y="13.25" as="offset" />
          </mxGeometry>
        </mxCell>
        <mxCell id="-kxU-s-FRwQV0nLQ8hPZ-5" style="edgeStyle=orthogonalEdgeStyle;rounded=0;orthogonalLoop=1;jettySize=auto;html=1;entryX=0.486;entryY=0.999;entryDx=0;entryDy=0;entryPerimeter=0;" parent="1" source="-kxU-s-FRwQV0nLQ8hPZ-4" target="hYPX-9NePYRcIFWMucl9-96" edge="1">
          <mxGeometry relative="1" as="geometry" />
        </mxCell>
        <mxCell id="-kxU-s-FRwQV0nLQ8hPZ-35" style="edgeStyle=orthogonalEdgeStyle;rounded=0;orthogonalLoop=1;jettySize=auto;html=1;entryX=0.5;entryY=1;entryDx=0;entryDy=0;fontSize=10;exitX=0.033;exitY=0.273;exitDx=0;exitDy=0;exitPerimeter=0;" parent="1" source="hYPX-9NePYRcIFWMucl9-104" target="VF1F4Plbv53C-rskRq-l-136" edge="1">
          <mxGeometry relative="1" as="geometry">
            <Array as="points">
              <mxPoint x="31" y="230" />
              <mxPoint x="350" y="230" />
            </Array>
          </mxGeometry>
        </mxCell>
        <mxCell id="yvn1otVcxnGCeWS-NwdR-40" style="edgeStyle=orthogonalEdgeStyle;rounded=0;orthogonalLoop=1;jettySize=auto;html=1;entryX=0.455;entryY=1;entryDx=0;entryDy=0;entryPerimeter=0;startArrow=none;startFill=0;endArrow=blockThin;endFill=1;fontSize=12;fontColor=#FF0000;align=center;exitX=0;exitY=0.79;exitDx=0;exitDy=0;exitPerimeter=0;" edge="1" parent="1" source="hYPX-9NePYRcIFWMucl9-104" target="-kxU-s-FRwQV0nLQ8hPZ-4">
          <mxGeometry relative="1" as="geometry" />
        </mxCell>
        <mxCell id="hYPX-9NePYRcIFWMucl9-104" value="&lt;span style=&quot;font-family: menlo, monaco, &amp;quot;courier new&amp;quot;, monospace; font-size: 10px;&quot;&gt;convertSdfBracketToMatchups&lt;/span&gt;&lt;span style=&quot;font-size: 10px;&quot;&gt;&amp;nbsp;&lt;/span&gt;" style="html=1;points=[];perimeter=orthogonalPerimeter;rounded=0;shadow=0;labelBackgroundColor=none;sketch=0;rotation=90;horizontal=0;fillColor=#ffe6cc;strokeColor=#d79b00;fontSize=10;" parent="1" vertex="1">
          <mxGeometry x="-32.81" y="222.82" width="30" height="214.38" as="geometry" />
        </mxCell>
        <mxCell id="hYPX-9NePYRcIFWMucl9-106" value="&lt;font style=&quot;font-size: 12px&quot;&gt;bracketData&lt;/font&gt;" style="html=1;verticalAlign=middle;endArrow=blockThin;dashed=1;endSize=8;endFill=1;exitX=0.195;exitY=0;exitDx=0;exitDy=0;exitPerimeter=0;" parent="1" target="hYPX-9NePYRcIFWMucl9-104" edge="1" source="hYPX-9NePYRcIFWMucl9-101">
          <mxGeometry relative="1" as="geometry">
            <mxPoint x="-104" y="350" as="targetPoint" />
            <mxPoint x="-84" y="470" as="sourcePoint" />
          </mxGeometry>
        </mxCell>
        <mxCell id="-kxU-s-FRwQV0nLQ8hPZ-30" style="edgeStyle=orthogonalEdgeStyle;rounded=0;orthogonalLoop=1;jettySize=auto;html=1;fontSize=10;" parent="1" source="hYPX-9NePYRcIFWMucl9-110" target="-kxU-s-FRwQV0nLQ8hPZ-29" edge="1">
          <mxGeometry relative="1" as="geometry">
            <Array as="points">
              <mxPoint x="-570" y="-1040" />
            </Array>
          </mxGeometry>
        </mxCell>
        <mxCell id="hYPX-9NePYRcIFWMucl9-110" value="&lt;p style=&quot;margin: 4px 0px 0px ; text-align: center ; text-decoration: underline ; font-size: 11px&quot;&gt;&lt;span style=&quot;color: rgb(78 , 201 , 176) ; font-family: &amp;#34;menlo&amp;#34; , &amp;#34;monaco&amp;#34; , &amp;#34;courier new&amp;#34; , monospace ; font-size: 12px ; text-align: left ; background-color: rgb(30 , 30 , 30)&quot;&gt;teams[] [&amp;lt;&lt;/span&gt;&lt;span style=&quot;color: rgb(78 , 201 , 176) ; background-color: rgb(30 , 30 , 30) ; font-family: &amp;#34;menlo&amp;#34; , &amp;#34;monaco&amp;#34; , &amp;#34;courier new&amp;#34; , monospace ; font-size: 12px ; text-align: left&quot;&gt;IPickUtilsTeam&lt;/span&gt;&lt;span style=&quot;background-color: rgb(30 , 30 , 30) ; color: rgb(78 , 201 , 176) ; font-family: &amp;#34;menlo&amp;#34; , &amp;#34;monaco&amp;#34; , &amp;#34;courier new&amp;#34; , monospace ; font-size: 12px ; text-align: left&quot;&gt;&amp;gt;]&lt;/span&gt;&lt;/p&gt;&lt;hr style=&quot;font-size: 11px&quot;&gt;&lt;div style=&quot;background-color: rgb(30 , 30 , 30) ; font-family: &amp;#34;menlo&amp;#34; , &amp;#34;monaco&amp;#34; , &amp;#34;courier new&amp;#34; , monospace ; line-height: 18px ; font-size: 11px&quot;&gt;&lt;div style=&quot;color: rgb(212 , 212 , 212)&quot;&gt;&lt;div style=&quot;font-family: &amp;#34;menlo&amp;#34; , &amp;#34;monaco&amp;#34; , &amp;#34;courier new&amp;#34; , monospace ; font-size: 12px ; line-height: 18px&quot;&gt;&lt;div&gt;&lt;span style=&quot;color: rgb(156 , 220 , 254)&quot;&gt;&amp;nbsp;topTeam&lt;/span&gt;:&amp;nbsp;&lt;span style=&quot;color: rgb(78 , 201 , 176) ; font-family: &amp;#34;menlo&amp;#34; , &amp;#34;monaco&amp;#34; , &amp;#34;courier new&amp;#34; , monospace&quot;&gt;IPickUtilsTeam&lt;/span&gt;&lt;br&gt;&lt;/div&gt;&lt;div&gt;&lt;div style=&quot;font-family: &amp;#34;menlo&amp;#34; , &amp;#34;monaco&amp;#34; , &amp;#34;courier new&amp;#34; , monospace ; line-height: 18px&quot;&gt;&lt;div&gt;&lt;div style=&quot;line-height: 18px&quot;&gt;&lt;div style=&quot;font-family: &amp;#34;menlo&amp;#34; , &amp;#34;monaco&amp;#34; , &amp;#34;courier new&amp;#34; , monospace ; line-height: 18px&quot;&gt;&lt;div&gt;&lt;div style=&quot;font-family: &amp;#34;menlo&amp;#34; , &amp;#34;monaco&amp;#34; , &amp;#34;courier new&amp;#34; , monospace ; line-height: 18px&quot;&gt;&lt;div style=&quot;font-family: &amp;#34;menlo&amp;#34; , &amp;#34;monaco&amp;#34; , &amp;#34;courier new&amp;#34; , monospace ; line-height: 18px&quot;&gt;&lt;div&gt;  &lt;span style=&quot;color: #9cdcfe&quot;&gt;&amp;nbsp;botTeam&lt;/span&gt;:&amp;nbsp;&lt;span style=&quot;color: rgb(78 , 201 , 176) ; font-family: &amp;#34;menlo&amp;#34; , &amp;#34;monaco&amp;#34; , &amp;#34;courier new&amp;#34; , monospace&quot;&gt;IPickUtilsTeam&lt;/span&gt;&lt;/div&gt;&lt;div&gt;&lt;/div&gt;&lt;/div&gt;&lt;/div&gt;&lt;/div&gt;&lt;div&gt;&lt;div style=&quot;font-family: &amp;#34;menlo&amp;#34; , &amp;#34;monaco&amp;#34; , &amp;#34;courier new&amp;#34; , monospace ; line-height: 18px&quot;&gt;&lt;div&gt;&lt;/div&gt;&lt;/div&gt;&lt;/div&gt;&lt;div&gt;&lt;/div&gt;&lt;/div&gt;&lt;/div&gt;&lt;/div&gt;&lt;div&gt;&lt;div style=&quot;line-height: 18px&quot;&gt;&lt;div&gt;&lt;/div&gt;&lt;/div&gt;&lt;/div&gt;&lt;div&gt;&lt;/div&gt;&lt;/div&gt;&lt;/div&gt;&lt;/div&gt;&lt;/div&gt;&lt;/div&gt;" style="verticalAlign=top;align=left;overflow=fill;fontSize=12;fontFamily=Helvetica;html=1;strokeColor=#003366;shadow=0;fillColor=#D4E1F5;fontColor=#003366" parent="1" vertex="1">
          <mxGeometry x="-680" y="-480" width="230" height="73" as="geometry" />
        </mxCell>
        <mxCell id="-kxU-s-FRwQV0nLQ8hPZ-4" value="groupName&lt;br style=&quot;font-size: 10px;&quot;&gt;groupPosition&lt;br style=&quot;font-size: 10px;&quot;&gt;tournamentRound&lt;br style=&quot;font-size: 10px;&quot;&gt;roundOrdinal" style="html=1;align=center;verticalAlign=middle;rounded=1;absoluteArcSize=1;arcSize=10;dashed=0;fontSize=10;fillColor=#f8cecc;strokeColor=#b85450;" parent="1" vertex="1">
          <mxGeometry x="-130" y="200" width="110" height="50" as="geometry" />
        </mxCell>
        <mxCell id="-kxU-s-FRwQV0nLQ8hPZ-19" value="eventId&lt;br&gt;bracketFeed.gameId || null" style="rhombus;whiteSpace=wrap;html=1;fillColor=#ffffc0;strokeColor=#ff0000;fontSize=10;align=center;" parent="1" vertex="1">
          <mxGeometry x="-390" y="-500" width="175" height="160" as="geometry" />
        </mxCell>
        <mxCell id="-kxU-s-FRwQV0nLQ8hPZ-20" value="no" style="edgeStyle=orthogonalEdgeStyle;html=1;align=left;verticalAlign=bottom;endArrow=open;endSize=8;strokeColor=#ff0000;fontSize=10;entryX=0;entryY=0.5;entryDx=0;entryDy=0;" parent="1" source="-kxU-s-FRwQV0nLQ8hPZ-19" target="-kxU-s-FRwQV0nLQ8hPZ-24" edge="1">
          <mxGeometry x="-1" relative="1" as="geometry">
            <mxPoint x="350" y="-380" as="targetPoint" />
          </mxGeometry>
        </mxCell>
        <mxCell id="-kxU-s-FRwQV0nLQ8hPZ-21" value="yes" style="edgeStyle=orthogonalEdgeStyle;html=1;align=left;verticalAlign=top;endArrow=open;endSize=8;strokeColor=#ff0000;fontSize=10;exitX=0.5;exitY=0;exitDx=0;exitDy=0;" parent="1" source="-kxU-s-FRwQV0nLQ8hPZ-19" target="VF1F4Plbv53C-rskRq-l-133" edge="1">
          <mxGeometry x="-0.3967" y="-13" relative="1" as="geometry">
            <mxPoint x="10" y="-610" as="targetPoint" />
            <mxPoint as="offset" />
          </mxGeometry>
        </mxCell>
        <mxCell id="-kxU-s-FRwQV0nLQ8hPZ-26" style="edgeStyle=orthogonalEdgeStyle;rounded=0;orthogonalLoop=1;jettySize=auto;html=1;entryX=0.5;entryY=1;entryDx=0;entryDy=0;fontSize=10;" parent="1" source="-kxU-s-FRwQV0nLQ8hPZ-24" target="VF1F4Plbv53C-rskRq-l-134" edge="1">
          <mxGeometry relative="1" as="geometry" />
        </mxCell>
        <mxCell id="-kxU-s-FRwQV0nLQ8hPZ-24" value="&lt;p style=&quot;margin: 4px 0px 0px ; text-align: center ; text-decoration: underline ; font-size: 11px&quot;&gt;&lt;span style=&quot;color: rgb(78 , 201 , 176) ; font-family: &amp;#34;menlo&amp;#34; , &amp;#34;monaco&amp;#34; , &amp;#34;courier new&amp;#34; , monospace ; font-size: 12px ; text-align: left ; background-color: rgb(30 , 30 , 30)&quot;&gt;event &amp;lt;&lt;/span&gt;&lt;span style=&quot;color: rgb(78 , 201 , 176) ; background-color: rgb(30 , 30 , 30) ; font-family: &amp;#34;menlo&amp;#34; , &amp;#34;monaco&amp;#34; , &amp;#34;courier new&amp;#34; , monospace ; font-size: 12px ; text-align: left&quot;&gt;IPickUtilsEvent&lt;/span&gt;&lt;span style=&quot;background-color: rgb(30 , 30 , 30) ; color: rgb(78 , 201 , 176) ; font-family: &amp;#34;menlo&amp;#34; , &amp;#34;monaco&amp;#34; , &amp;#34;courier new&amp;#34; , monospace ; font-size: 12px ; text-align: left&quot;&gt;&amp;gt;&lt;/span&gt;&lt;br&gt;&lt;/p&gt;&lt;hr style=&quot;font-size: 11px&quot;&gt;&lt;div style=&quot;background-color: rgb(30 , 30 , 30) ; font-family: &amp;#34;menlo&amp;#34; , &amp;#34;monaco&amp;#34; , &amp;#34;courier new&amp;#34; , monospace ; line-height: 18px ; font-size: 11px&quot;&gt;&lt;div style=&quot;color: rgb(212 , 212 , 212)&quot;&gt;&lt;div style=&quot;font-family: &amp;#34;menlo&amp;#34; , &amp;#34;monaco&amp;#34; , &amp;#34;courier new&amp;#34; , monospace ; font-size: 12px ; line-height: 18px&quot;&gt;&lt;div&gt;&lt;span style=&quot;color: rgb(156 , 220 , 254)&quot;&gt;&amp;nbsp;null&lt;/span&gt;&lt;/div&gt;&lt;div&gt;&lt;div style=&quot;font-family: &amp;#34;menlo&amp;#34; , &amp;#34;monaco&amp;#34; , &amp;#34;courier new&amp;#34; , monospace ; line-height: 18px&quot;&gt;&lt;div&gt;&lt;div style=&quot;line-height: 18px&quot;&gt;&lt;div&gt;&lt;/div&gt;&lt;/div&gt;&lt;/div&gt;&lt;div&gt;&lt;/div&gt;&lt;/div&gt;&lt;/div&gt;&lt;/div&gt;&lt;/div&gt;&lt;/div&gt;" style="verticalAlign=top;align=left;overflow=fill;fontSize=12;fontFamily=Helvetica;html=1;strokeColor=#003366;shadow=0;fillColor=#D4E1F5;fontColor=#003366" parent="1" vertex="1">
          <mxGeometry x="-107.5" y="-448" width="191.5" height="55" as="geometry" />
        </mxCell>
        <mxCell id="-kxU-s-FRwQV0nLQ8hPZ-34" style="edgeStyle=orthogonalEdgeStyle;rounded=0;orthogonalLoop=1;jettySize=auto;html=1;fontSize=10;" parent="1" source="-kxU-s-FRwQV0nLQ8hPZ-29" target="hYPX-9NePYRcIFWMucl9-104" edge="1">
          <mxGeometry relative="1" as="geometry">
            <mxPoint x="143" y="310" as="targetPoint" />
            <Array as="points">
              <mxPoint x="-35" y="-1120" />
              <mxPoint x="570" y="-1120" />
              <mxPoint x="570" y="330" />
            </Array>
          </mxGeometry>
        </mxCell>
        <mxCell id="-kxU-s-FRwQV0nLQ8hPZ-29" value="&lt;p style=&quot;margin: 4px 0px 0px ; text-align: center ; text-decoration: underline ; font-size: 11px&quot;&gt;&lt;span style=&quot;color: rgb(78 , 201 , 176) ; font-family: &amp;#34;menlo&amp;#34; , &amp;#34;monaco&amp;#34; , &amp;#34;courier new&amp;#34; , monospace ; font-size: 12px ; text-align: left ; background-color: rgb(30 , 30 , 30)&quot;&gt;bundle &amp;lt;&lt;/span&gt;&lt;span style=&quot;color: rgb(78 , 201 , 176) ; background-color: rgb(30 , 30 , 30) ; font-family: &amp;#34;menlo&amp;#34; , &amp;#34;monaco&amp;#34; , &amp;#34;courier new&amp;#34; , monospace ; font-size: 12px ; text-align: left&quot;&gt;IPickUtilsInputBundle&lt;/span&gt;&lt;span style=&quot;background-color: rgb(30 , 30 , 30) ; color: rgb(78 , 201 , 176) ; font-family: &amp;#34;menlo&amp;#34; , &amp;#34;monaco&amp;#34; , &amp;#34;courier new&amp;#34; , monospace ; font-size: 12px ; text-align: left&quot;&gt;&amp;gt;&lt;/span&gt;&lt;br&gt;&lt;/p&gt;&lt;hr style=&quot;font-size: 11px&quot;&gt;&lt;div style=&quot;background-color: rgb(30 , 30 , 30) ; font-family: &amp;#34;menlo&amp;#34; , &amp;#34;monaco&amp;#34; , &amp;#34;courier new&amp;#34; , monospace ; line-height: 18px ; font-size: 11px&quot;&gt;&lt;div style=&quot;color: rgb(212 , 212 , 212)&quot;&gt;&lt;div style=&quot;font-family: &amp;#34;menlo&amp;#34; , &amp;#34;monaco&amp;#34; , &amp;#34;courier new&amp;#34; , monospace ; font-size: 12px ; line-height: 18px&quot;&gt;&lt;div&gt;&lt;span style=&quot;color: rgb(156 , 220 , 254)&quot;&gt;&amp;nbsp;&lt;/span&gt;&lt;span style=&quot;font-family: &amp;#34;menlo&amp;#34; , &amp;#34;monaco&amp;#34; , &amp;#34;courier new&amp;#34; , monospace ; color: rgb(156 , 220 , 254)&quot;&gt;matchups&lt;/span&gt;&lt;span style=&quot;font-family: &amp;#34;menlo&amp;#34; , &amp;#34;monaco&amp;#34; , &amp;#34;courier new&amp;#34; , monospace&quot;&gt;: &lt;/span&gt;&lt;span style=&quot;font-family: &amp;#34;menlo&amp;#34; , &amp;#34;monaco&amp;#34; , &amp;#34;courier new&amp;#34; , monospace ; color: rgb(78 , 201 , 176)&quot;&gt;IBracketUtilMatchup&lt;/span&gt;&lt;span style=&quot;font-family: &amp;#34;menlo&amp;#34; , &amp;#34;monaco&amp;#34; , &amp;#34;courier new&amp;#34; , monospace&quot;&gt;[]&lt;/span&gt;&lt;/div&gt;&lt;div style=&quot;font-family: &amp;#34;menlo&amp;#34; , &amp;#34;monaco&amp;#34; , &amp;#34;courier new&amp;#34; , monospace ; line-height: 18px&quot;&gt;&lt;div&gt;  &lt;span style=&quot;color: #9cdcfe&quot;&gt;&amp;nbsp;events&lt;/span&gt;: &lt;span style=&quot;color: #4ec9b0&quot;&gt;IPickUtilsEvent&lt;/span&gt;[]&amp;nbsp;&lt;/div&gt;&lt;div&gt;  &lt;span style=&quot;color: #9cdcfe&quot;&gt;&amp;nbsp;teams&lt;/span&gt;: &lt;span style=&quot;color: #4ec9b0&quot;&gt;IPickUtilsTeam&lt;/span&gt;[]&lt;/div&gt;&lt;div&gt;  &lt;span style=&quot;color: #9cdcfe&quot;&gt;&amp;nbsp;period&lt;/span&gt;: &lt;span style=&quot;color: #4ec9b0&quot;&gt;IPickUtilsPeriod&lt;/span&gt;&lt;/div&gt;&lt;/div&gt;&lt;div&gt;&lt;div style=&quot;font-family: &amp;#34;menlo&amp;#34; , &amp;#34;monaco&amp;#34; , &amp;#34;courier new&amp;#34; , monospace ; line-height: 18px&quot;&gt;&lt;div&gt;&lt;div style=&quot;line-height: 18px&quot;&gt;&lt;div&gt;&lt;/div&gt;&lt;/div&gt;&lt;/div&gt;&lt;div&gt;&lt;/div&gt;&lt;/div&gt;&lt;/div&gt;&lt;/div&gt;&lt;/div&gt;&lt;/div&gt;" style="verticalAlign=top;align=left;overflow=fill;fontSize=12;fontFamily=Helvetica;html=1;strokeColor=#003366;shadow=0;fillColor=#D4E1F5;fontColor=#003366" parent="1" vertex="1">
          <mxGeometry x="-230" y="-1099" width="390" height="109" as="geometry" />
        </mxCell>
        <mxCell id="-kxU-s-FRwQV0nLQ8hPZ-45" value="" style="endArrow=classic;html=1;fontSize=10;entryX=0;entryY=0.5;entryDx=0;entryDy=0;strokeWidth=3;" parent="1" target="hYPX-9NePYRcIFWMucl9-101" edge="1">
          <mxGeometry width="50" height="50" relative="1" as="geometry">
            <mxPoint x="-630" y="639" as="sourcePoint" />
            <mxPoint x="-420" y="620" as="targetPoint" />
          </mxGeometry>
        </mxCell>
        <mxCell id="-kxU-s-FRwQV0nLQ8hPZ-53" value="isBracketPostPicksOpen" style="html=1;points=[];perimeter=orthogonalPerimeter;labelBackgroundColor=none;strokeWidth=1;fillColor=#ffe6cc;fontSize=10;align=center;horizontal=0;strokeColor=#d79b00;rotation=90;" parent="1" vertex="1">
          <mxGeometry x="200" y="340" width="30" height="140" as="geometry" />
        </mxCell>
        <mxCell id="-kxU-s-FRwQV0nLQ8hPZ-55" value="&lt;font style=&quot;font-size: 12px&quot; color=&quot;#ff3333&quot;&gt;isLocked&lt;/font&gt;" style="html=1;verticalAlign=bottom;endArrow=blockThin;endSize=8;exitX=1.062;exitY=0.514;strokeWidth=1;fontSize=10;entryX=0.87;entryY=-0.001;entryDx=0;entryDy=0;endFill=1;exitDx=0;exitDy=0;exitPerimeter=0;entryPerimeter=0;" parent="1" source="-kxU-s-FRwQV0nLQ8hPZ-53" target="hYPX-9NePYRcIFWMucl9-101" edge="1">
          <mxGeometry x="0.4236" relative="1" as="geometry">
            <mxPoint x="313.44000000000005" y="543.0500000000002" as="targetPoint" />
            <mxPoint as="offset" />
          </mxGeometry>
        </mxCell>
        <mxCell id="-kxU-s-FRwQV0nLQ8hPZ-54" value="" style="html=1;verticalAlign=bottom;endArrow=block;strokeWidth=1;fontSize=10;startArrow=oval;startFill=1;labelBackgroundColor=#FFFFFF;rounded=0;dashed=1;" parent="1" edge="1">
          <mxGeometry relative="1" as="geometry">
            <mxPoint x="74" y="410.25" as="sourcePoint" />
            <mxPoint x="140" y="410" as="targetPoint" />
            <Array as="points">
              <mxPoint x="124" y="410.25" />
            </Array>
          </mxGeometry>
        </mxCell>
        <mxCell id="hYPX-9NePYRcIFWMucl9-105" value="&lt;font color=&quot;#ff3333&quot; style=&quot;font-size: 12px;&quot;&gt;bundle&lt;/font&gt;" style="html=1;verticalAlign=middle;endArrow=block;fontSize=12;exitX=1.011;exitY=0.089;exitDx=0;exitDy=0;exitPerimeter=0;" parent="1" edge="1" source="hYPX-9NePYRcIFWMucl9-104">
          <mxGeometry x="0.4715" relative="1" as="geometry">
            <mxPoint x="175" y="350" as="sourcePoint" />
            <Array as="points" />
            <mxPoint x="70" y="474" as="targetPoint" />
            <mxPoint as="offset" />
          </mxGeometry>
        </mxCell>
        <mxCell id="yvn1otVcxnGCeWS-NwdR-1" value="convertVariantToDisplayMode" style="html=1;points=[];perimeter=orthogonalPerimeter;fillColor=#ffe6cc;strokeColor=#d79b00;horizontal=0;fontSize=10;" vertex="1" parent="1">
          <mxGeometry x="400" y="460" width="30" height="150" as="geometry" />
        </mxCell>
        <mxCell id="yvn1otVcxnGCeWS-NwdR-2" value="variant" style="html=1;verticalAlign=bottom;endArrow=block;exitX=1.003;exitY=0.381;exitDx=0;exitDy=0;exitPerimeter=0;dashed=1;" edge="1" parent="1">
          <mxGeometry relative="1" as="geometry">
            <mxPoint x="270.1599999999999" y="536.48" as="sourcePoint" />
            <mxPoint x="398.84" y="537" as="targetPoint" />
          </mxGeometry>
        </mxCell>
        <mxCell id="yvn1otVcxnGCeWS-NwdR-3" value="&lt;font&gt;displayMode&lt;/font&gt;" style="html=1;verticalAlign=bottom;endArrow=blockThin;endSize=8;exitX=-0.012;exitY=0.802;entryX=1.003;entryY=0.624;entryDx=0;entryDy=0;entryPerimeter=0;exitDx=0;exitDy=0;exitPerimeter=0;endFill=1;fontColor=#FF0000;" edge="1" parent="1">
          <mxGeometry relative="1" as="geometry">
            <mxPoint x="270.0000000000001" y="565.0000000000001" as="targetPoint" />
            <mxPoint x="399.3199999999998" y="565.6300000000002" as="sourcePoint" />
          </mxGeometry>
        </mxCell>
        <mxCell id="yvn1otVcxnGCeWS-NwdR-4" value="" style="html=1;verticalAlign=bottom;endArrow=block;strokeWidth=1;fontSize=10;startArrow=oval;startFill=0;labelBackgroundColor=#FFFFFF;rounded=0;dashed=1;" edge="1" parent="1">
          <mxGeometry relative="1" as="geometry">
            <mxPoint x="352" y="380" as="sourcePoint" />
            <mxPoint x="401" y="512" as="targetPoint" />
            <Array as="points">
              <mxPoint x="352" y="511" />
            </Array>
          </mxGeometry>
        </mxCell>
        <mxCell id="yvn1otVcxnGCeWS-NwdR-10" value="" style="group" vertex="1" connectable="0" parent="1">
          <mxGeometry x="-170" y="967" width="297" height="560" as="geometry" />
        </mxCell>
        <mxCell id="yvn1otVcxnGCeWS-NwdR-7" value="" style="shape=folder;fontStyle=1;spacingTop=10;tabWidth=147;tabHeight=20;tabPosition=left;html=1;fontSize=10;fontColor=#FF0000;" vertex="1" parent="yvn1otVcxnGCeWS-NwdR-10">
          <mxGeometry width="297" height="560" as="geometry" />
        </mxCell>
        <mxCell id="yvn1otVcxnGCeWS-NwdR-9" value="" style="group" vertex="1" connectable="0" parent="yvn1otVcxnGCeWS-NwdR-10">
          <mxGeometry x="1" width="296" height="560" as="geometry" />
        </mxCell>
        <mxCell id="VF1F4Plbv53C-rskRq-l-147" value="&lt;div style=&quot;color: rgb(212 , 212 , 212) ; background-color: rgb(30 , 30 , 30) ; font-family: &amp;#34;menlo&amp;#34; , &amp;#34;monaco&amp;#34; , &amp;#34;courier new&amp;#34; , monospace ; line-height: 18px&quot;&gt;&lt;div&gt;  &lt;span style=&quot;color: #9cdcfe&quot;&gt;isStaggered&lt;/span&gt;: &lt;span style=&quot;color: #4ec9b0&quot;&gt;boolean&lt;/span&gt;&lt;/div&gt;&lt;div&gt;  &lt;span style=&quot;color: #9cdcfe&quot;&gt;isTree&lt;/span&gt;: &lt;span style=&quot;color: #4ec9b0&quot;&gt;boolean&lt;/span&gt;&lt;/div&gt;&lt;div&gt;  &lt;span style=&quot;color: #9cdcfe&quot;&gt;isThreeSectioned&lt;/span&gt;: &lt;span style=&quot;color: #4ec9b0&quot;&gt;boolean&lt;/span&gt;&lt;/div&gt;&lt;div&gt;  &lt;span style=&quot;color: #9cdcfe&quot;&gt;width&lt;/span&gt;: &lt;span style=&quot;color: #4ec9b0&quot;&gt;number&lt;/span&gt;&lt;/div&gt;&lt;div&gt;  &lt;span style=&quot;color: #9cdcfe&quot;&gt;height&lt;/span&gt;: &lt;span style=&quot;color: #4ec9b0&quot;&gt;number&lt;/span&gt;&lt;/div&gt;&lt;div&gt;  &lt;span style=&quot;color: #9cdcfe&quot;&gt;scale&lt;/span&gt;: &lt;span style=&quot;color: #4ec9b0&quot;&gt;number&lt;/span&gt;&lt;/div&gt;&lt;div&gt;  &lt;span style=&quot;color: #9cdcfe&quot;&gt;matchupHtoWRatio&lt;/span&gt;: &lt;span style=&quot;color: #4ec9b0&quot;&gt;number&lt;/span&gt;&lt;/div&gt;&lt;div&gt;  &lt;span style=&quot;color: #9cdcfe&quot;&gt;viewBoxWidth&lt;/span&gt;: &lt;span style=&quot;color: #4ec9b0&quot;&gt;number&lt;/span&gt;&lt;/div&gt;&lt;div&gt;  &lt;span style=&quot;color: #9cdcfe&quot;&gt;viewBoxHeight&lt;/span&gt;: &lt;span style=&quot;color: #4ec9b0&quot;&gt;number&lt;/span&gt;&lt;/div&gt;&lt;div&gt;  &lt;span style=&quot;color: #9cdcfe&quot;&gt;builtCoordMap&lt;/span&gt;: &lt;span style=&quot;color: #4ec9b0&quot;&gt;boolean&lt;/span&gt;&lt;/div&gt;&lt;div&gt;  &lt;span style=&quot;color: #9cdcfe&quot;&gt;ignorePlayins&lt;/span&gt;: &lt;span style=&quot;color: #4ec9b0&quot;&gt;boolean&lt;/span&gt;&lt;/div&gt;&lt;div&gt;  &lt;span style=&quot;color: #9cdcfe&quot;&gt;gutterToColumnWRatio&lt;/span&gt;: &lt;span style=&quot;color: #4ec9b0&quot;&gt;number&lt;/span&gt;&lt;/div&gt;&lt;div&gt;  &lt;span style=&quot;color: #9cdcfe&quot;&gt;calculateHeight&lt;/span&gt;: &lt;span style=&quot;color: #4ec9b0&quot;&gt;boolean&lt;/span&gt;&lt;/div&gt;&lt;div&gt;  &lt;span style=&quot;color: #9cdcfe&quot;&gt;isFluidWidth&lt;/span&gt;: &lt;span style=&quot;color: #4ec9b0&quot;&gt;boolean&lt;/span&gt;&lt;/div&gt;&lt;div&gt;  &lt;span style=&quot;color: #9cdcfe&quot;&gt;matchupWidthPercent&lt;/span&gt;: &lt;span style=&quot;color: #4ec9b0&quot;&gt;number&lt;/span&gt;&lt;/div&gt;&lt;div&gt;  &lt;span style=&quot;color: #6a9955&quot;&gt;// swacket&lt;/span&gt;&lt;/div&gt;&lt;div&gt;  &lt;span style=&quot;color: #9cdcfe&quot;&gt;swacketMatchupWidth&lt;/span&gt;: &lt;span style=&quot;color: #4ec9b0&quot;&gt;number&lt;/span&gt;&lt;/div&gt;&lt;div&gt;  &lt;span style=&quot;color: #9cdcfe&quot;&gt;swacketMatchupHeight&lt;/span&gt;: &lt;span style=&quot;color: #4ec9b0&quot;&gt;number&lt;/span&gt;&lt;/div&gt;&lt;div&gt;  &lt;span style=&quot;color: #9cdcfe&quot;&gt;swacketMatchupGutterW&lt;/span&gt;: &lt;span style=&quot;color: #4ec9b0&quot;&gt;number&lt;/span&gt;&lt;/div&gt;&lt;div&gt;  &lt;span style=&quot;color: #9cdcfe&quot;&gt;swacketMatchupGroupLabelH&lt;/span&gt;: &lt;span style=&quot;color: #4ec9b0&quot;&gt;number&lt;/span&gt;&lt;/div&gt;&lt;div&gt;  &lt;span style=&quot;color: #9cdcfe&quot;&gt;swacketViewingTournamentRound&lt;/span&gt;: &lt;span style=&quot;color: #4ec9b0&quot;&gt;number&lt;/span&gt;&lt;/div&gt;&lt;div&gt;  &lt;span style=&quot;color: #9cdcfe&quot;&gt;swacketRegionOffsetH&lt;/span&gt;: &lt;span style=&quot;color: #4ec9b0&quot;&gt;number&lt;/span&gt;&lt;/div&gt;&lt;div&gt;  &lt;span style=&quot;color: #6a9955&quot;&gt;// optional&lt;/span&gt;&lt;/div&gt;&lt;div&gt;  &lt;span style=&quot;color: #9cdcfe&quot;&gt;minWidth&lt;/span&gt;?: &lt;span style=&quot;color: #4ec9b0&quot;&gt;number&lt;/span&gt;&lt;/div&gt;&lt;div&gt;  &lt;span style=&quot;color: #9cdcfe&quot;&gt;verticalGutterHeight&lt;/span&gt;?: &lt;span style=&quot;color: #4ec9b0&quot;&gt;number&lt;/span&gt;&lt;/div&gt;&lt;div&gt;  &lt;span style=&quot;color: #9cdcfe&quot;&gt;regionLabelHeight&lt;/span&gt;?: &lt;span style=&quot;color: #4ec9b0&quot;&gt;number&lt;/span&gt;&lt;/div&gt;&lt;div&gt;  &lt;span style=&quot;color: #9cdcfe&quot;&gt;matchupHeight&lt;/span&gt;?: &lt;span style=&quot;color: #4ec9b0&quot;&gt;number&lt;/span&gt;&lt;/div&gt;&lt;div&gt;  &lt;span style=&quot;color: #9cdcfe&quot;&gt;rowHeight&lt;/span&gt;?: &lt;span style=&quot;color: #4ec9b0&quot;&gt;number&lt;/span&gt;&lt;/div&gt;&lt;div&gt;  &lt;span style=&quot;color: #9cdcfe&quot;&gt;finalRoundLogoHeight&lt;/span&gt;?: &lt;span style=&quot;color: #4ec9b0&quot;&gt;number&lt;/span&gt;&lt;/div&gt;&lt;div&gt;  &lt;span style=&quot;color: #9cdcfe&quot;&gt;finalMatchupWidthRatio&lt;/span&gt;?: &lt;span style=&quot;color: #4ec9b0&quot;&gt;number&lt;/span&gt;&lt;/div&gt;&lt;/div&gt;" style="verticalAlign=top;align=left;overflow=fill;fontSize=12;fontFamily=Helvetica;html=1;strokeColor=#6c8ebf;shadow=0;fillColor=#dae8fc;" parent="yvn1otVcxnGCeWS-NwdR-9" vertex="1">
          <mxGeometry y="22" width="296" height="538" as="geometry" />
        </mxCell>
        <mxCell id="yvn1otVcxnGCeWS-NwdR-8" value="compactVisualOptions" style="text;align=center;fontStyle=1;verticalAlign=middle;spacingLeft=3;spacingRight=3;strokeColor=none;rotatable=0;points=[[0,0.5],[1,0.5]];portConstraint=eastwest;shadow=0;fontSize=10;fontColor=#0000CC;" vertex="1" parent="yvn1otVcxnGCeWS-NwdR-9">
          <mxGeometry width="146" height="22" as="geometry" />
        </mxCell>
        <mxCell id="yvn1otVcxnGCeWS-NwdR-11" value="&lt;font style=&quot;font-size: 8px ; line-height: 100%&quot;&gt;interactive-compact&lt;/font&gt;" style="rhombus;whiteSpace=wrap;html=1;fillColor=#ffffc0;strokeColor=#ff0000;shadow=0;fontSize=10;" vertex="1" parent="1">
          <mxGeometry x="286" y="832" width="97" height="60" as="geometry" />
        </mxCell>
        <mxCell id="yvn1otVcxnGCeWS-NwdR-12" value="no" style="edgeStyle=orthogonalEdgeStyle;html=1;align=left;verticalAlign=bottom;endArrow=blockThin;endSize=8;strokeColor=#ff0000;fontSize=10;endFill=1;" edge="1" source="yvn1otVcxnGCeWS-NwdR-11" parent="1">
          <mxGeometry x="-1" relative="1" as="geometry">
            <mxPoint x="425" y="972" as="targetPoint" />
          </mxGeometry>
        </mxCell>
        <mxCell id="yvn1otVcxnGCeWS-NwdR-14" value="" style="html=1;verticalAlign=bottom;endArrow=block;strokeWidth=1;fontSize=10;startArrow=oval;startFill=1;labelBackgroundColor=#FFFFFF;rounded=0;dashed=1;" edge="1" parent="1">
          <mxGeometry relative="1" as="geometry">
            <mxPoint x="335" y="600" as="sourcePoint" />
            <mxPoint x="335" y="830" as="targetPoint" />
            <Array as="points" />
          </mxGeometry>
        </mxCell>
        <mxCell id="yvn1otVcxnGCeWS-NwdR-20" value="defaultVisualOptions" style="html=1;shadow=0;fontSize=10;fontColor=#0000CC;fontStyle=1" vertex="1" parent="1">
          <mxGeometry x="-170" y="947" width="147" height="20" as="geometry" />
        </mxCell>
        <mxCell id="yvn1otVcxnGCeWS-NwdR-21" value="&lt;font&gt;originalVisualOptions&lt;/font&gt;" style="html=1;verticalAlign=bottom;endArrow=blockThin;endSize=8;endFill=1;fontColor=#FF0000;rounded=0;entryX=0.683;entryY=1;entryDx=0;entryDy=0;entryPerimeter=0;" edge="1" parent="1" target="hYPX-9NePYRcIFWMucl9-101">
          <mxGeometry x="-0.0801" relative="1" as="geometry">
            <mxPoint x="130" y="810" as="targetPoint" />
            <mxPoint x="180" y="970" as="sourcePoint" />
            <Array as="points">
              <mxPoint x="131" y="970" />
            </Array>
            <mxPoint as="offset" />
          </mxGeometry>
        </mxCell>
        <mxCell id="yvn1otVcxnGCeWS-NwdR-23" value="compactVisualOptions" style="html=1;shadow=0;fontSize=10;fontStyle=0;fillColor=#ffe6cc;strokeColor=#d79b00;" vertex="1" parent="1">
          <mxGeometry x="265" y="945" width="130" height="20" as="geometry" />
        </mxCell>
        <mxCell id="yvn1otVcxnGCeWS-NwdR-24" value="defaultVisualOptions" style="html=1;shadow=0;fontSize=10;fontStyle=0;fillColor=#ffe6cc;strokeColor=#d79b00;" vertex="1" parent="1">
          <mxGeometry x="295" y="973" width="157" height="20" as="geometry" />
        </mxCell>
        <mxCell id="yvn1otVcxnGCeWS-NwdR-25" value="" style="endArrow=none;html=1;fontSize=10;fontColor=#0000CC;entryX=0;entryY=0.5;entryDx=0;entryDy=0;rounded=0;fillColor=#ffe6cc;strokeColor=#d79b00;exitX=0;exitY=0.5;exitDx=0;exitDy=0;" edge="1" parent="1" source="yvn1otVcxnGCeWS-NwdR-23" target="yvn1otVcxnGCeWS-NwdR-24">
          <mxGeometry width="50" height="50" relative="1" as="geometry">
            <mxPoint x="263" y="955" as="sourcePoint" />
            <mxPoint x="293" y="985" as="targetPoint" />
            <Array as="points">
              <mxPoint x="180" y="955" />
              <mxPoint x="180" y="983" />
            </Array>
          </mxGeometry>
        </mxCell>
        <mxCell id="yvn1otVcxnGCeWS-NwdR-13" value="yes" style="edgeStyle=orthogonalEdgeStyle;html=1;align=left;verticalAlign=top;endArrow=blockThin;endSize=8;strokeColor=#ff0000;fontSize=10;entryX=0.305;entryY=-0.015;entryDx=0;entryDy=0;entryPerimeter=0;endFill=1;" edge="1" source="yvn1otVcxnGCeWS-NwdR-11" parent="1" target="yvn1otVcxnGCeWS-NwdR-23">
          <mxGeometry x="-1" relative="1" as="geometry">
            <mxPoint x="305" y="952" as="targetPoint" />
          </mxGeometry>
        </mxCell>
        <mxCell id="yvn1otVcxnGCeWS-NwdR-29" value="&lt;font&gt;visualOptions&lt;/font&gt;" style="html=1;verticalAlign=bottom;endArrow=blockThin;endSize=8;endFill=1;fontColor=#FF0000;rounded=0;entryX=0.683;entryY=1;entryDx=0;entryDy=0;entryPerimeter=0;" edge="1" parent="1">
          <mxGeometry x="0.5007" relative="1" as="geometry">
            <mxPoint x="20.519999999999982" y="803.75" as="targetPoint" />
            <mxPoint x="130" y="880" as="sourcePoint" />
            <Array as="points">
              <mxPoint x="21" y="880" />
            </Array>
            <mxPoint as="offset" />
          </mxGeometry>
        </mxCell>
        <mxCell id="yvn1otVcxnGCeWS-NwdR-30" value="&lt;span style=&quot;font-size: 12px;&quot;&gt;buildPickUtils&lt;/span&gt;" style="html=1;points=[];perimeter=orthogonalPerimeter;fillColor=#ffe6cc;strokeColor=#d79b00;horizontal=0;fontSize=10;labelBackgroundColor=none;" vertex="1" parent="1">
          <mxGeometry x="480" y="530" width="30" height="210" as="geometry" />
        </mxCell>
        <mxCell id="yvn1otVcxnGCeWS-NwdR-31" value="currentPickUtils.current" style="html=1;verticalAlign=bottom;endArrow=block;exitX=1.003;exitY=0.381;exitDx=0;exitDy=0;exitPerimeter=0;dashed=1;entryX=0;entryY=0.419;entryDx=0;entryDy=0;entryPerimeter=0;align=center;" edge="1" parent="1">
          <mxGeometry relative="1" as="geometry">
            <mxPoint x="271.3199999999997" y="652.9999999999998" as="sourcePoint" />
            <mxPoint x="480" y="653.4625000000001" as="targetPoint" />
          </mxGeometry>
        </mxCell>
        <mxCell id="yvn1otVcxnGCeWS-NwdR-32" value="" style="html=1;verticalAlign=bottom;endArrow=block;strokeWidth=1;fontSize=10;startArrow=oval;startFill=1;labelBackgroundColor=#FFFFFF;rounded=0;dashed=1;entryX=0.456;entryY=-0.008;entryDx=0;entryDy=0;entryPerimeter=0;" edge="1" parent="1" target="yvn1otVcxnGCeWS-NwdR-30">
          <mxGeometry relative="1" as="geometry">
            <mxPoint x="70" y="380" as="sourcePoint" />
            <mxPoint x="526.5" y="380" as="targetPoint" />
            <Array as="points">
              <mxPoint x="306" y="380" />
              <mxPoint x="494" y="380" />
            </Array>
          </mxGeometry>
        </mxCell>
        <mxCell id="yvn1otVcxnGCeWS-NwdR-33" value="bundle" style="text;align=center;fontStyle=0;verticalAlign=middle;spacingLeft=3;spacingRight=3;strokeColor=none;rotatable=0;points=[[0,0.5],[1,0.5]];portConstraint=eastwest;rounded=1;shadow=0;glass=0;dashed=1;dashPattern=1 1;labelBackgroundColor=none;sketch=0;fontSize=12;fontColor=#FF0000;" vertex="1" parent="1">
          <mxGeometry x="70" y="390" width="80" height="16" as="geometry" />
        </mxCell>
        <mxCell id="yvn1otVcxnGCeWS-NwdR-36" value="bundle" style="text;align=center;fontStyle=0;verticalAlign=middle;spacingLeft=3;spacingRight=3;strokeColor=none;rotatable=0;points=[[0,0.5],[1,0.5]];portConstraint=eastwest;rounded=1;shadow=0;glass=0;dashed=1;dashPattern=1 1;labelBackgroundColor=#ffffff;sketch=0;fontSize=12;fontColor=#FF0000;" vertex="1" parent="1">
          <mxGeometry x="461" y="421.2" width="68" height="16" as="geometry" />
        </mxCell>
        <mxCell id="yvn1otVcxnGCeWS-NwdR-38" value="wipPicks" style="html=1;verticalAlign=bottom;endArrow=block;exitX=1.003;exitY=0.381;exitDx=0;exitDy=0;exitPerimeter=0;dashed=1;entryX=0;entryY=0.419;entryDx=0;entryDy=0;entryPerimeter=0;" edge="1" parent="1">
          <mxGeometry relative="1" as="geometry">
            <mxPoint x="269.9999999999997" y="675.66" as="sourcePoint" />
            <mxPoint x="478.68" y="676.1225000000001" as="targetPoint" />
          </mxGeometry>
        </mxCell>
        <mxCell id="yvn1otVcxnGCeWS-NwdR-39" value="&lt;font&gt;pickUtils&lt;/font&gt;" style="html=1;verticalAlign=bottom;endArrow=blockThin;endSize=8;exitX=-0.012;exitY=0.802;entryX=1;entryY=0.957;entryDx=0;entryDy=0;entryPerimeter=0;exitDx=0;exitDy=0;exitPerimeter=0;endFill=1;fontColor=#FF0000;" edge="1" parent="1">
          <mxGeometry relative="1" as="geometry">
            <mxPoint x="270" y="701.5600000000004" as="targetPoint" />
            <mxPoint x="479.99999999999983" y="702.3100000000002" as="sourcePoint" />
          </mxGeometry>
        </mxCell>
        <mxCell id="yvn1otVcxnGCeWS-NwdR-41" value="bundle" style="text;align=center;fontStyle=0;verticalAlign=middle;spacingLeft=3;spacingRight=3;strokeColor=none;rotatable=0;points=[[0,0.5],[1,0.5]];portConstraint=eastwest;rounded=1;shadow=0;glass=0;dashed=1;dashPattern=1 1;labelBackgroundColor=#ffffff;sketch=0;fontSize=12;fontColor=#FF0000;" vertex="1" parent="1">
          <mxGeometry x="310" y="457.75" width="80" height="16" as="geometry" />
        </mxCell>
        <mxCell id="yvn1otVcxnGCeWS-NwdR-46" value="!currentPIckUtils &lt;br&gt;or &lt;br&gt;!cached" style="rhombus;whiteSpace=wrap;html=1;fillColor=#ffffc0;rounded=0;shadow=0;glass=0;labelBackgroundColor=none;sketch=0;fontSize=10;fontColor=#FF0000;strokeColor=#FF0000;" vertex="1" parent="1">
          <mxGeometry x="560" y="610" width="110" height="100" as="geometry" />
        </mxCell>
        <mxCell id="yvn1otVcxnGCeWS-NwdR-47" value="yes" style="edgeStyle=orthogonalEdgeStyle;html=1;align=left;verticalAlign=bottom;endArrow=blockThin;endSize=8;fontSize=10;fontColor=#FF0000;strokeColor=#FF0000;labelBackgroundColor=none;endFill=1;exitX=1;exitY=0.5;exitDx=0;exitDy=0;rounded=0;" edge="1" source="yvn1otVcxnGCeWS-NwdR-46" parent="1">
          <mxGeometry x="-0.4286" relative="1" as="geometry">
            <mxPoint x="740" y="660" as="targetPoint" />
            <mxPoint x="670" y="660" as="sourcePoint" />
            <Array as="points">
              <mxPoint x="740" y="660" />
              <mxPoint x="790" y="660" />
            </Array>
            <mxPoint as="offset" />
          </mxGeometry>
        </mxCell>
        <mxCell id="yvn1otVcxnGCeWS-NwdR-48" value="no" style="edgeStyle=orthogonalEdgeStyle;html=1;align=left;verticalAlign=top;endArrow=blockThin;endSize=8;fontSize=10;fontColor=#FF0000;strokeColor=#FF0000;labelBackgroundColor=none;endFill=1;entryX=0.001;entryY=0.5;entryDx=0;entryDy=0;entryPerimeter=0;" edge="1" source="yvn1otVcxnGCeWS-NwdR-46" parent="1" target="yvn1otVcxnGCeWS-NwdR-49">
          <mxGeometry x="-0.6" relative="1" as="geometry">
            <mxPoint x="615" y="760" as="targetPoint" />
            <mxPoint as="offset" />
          </mxGeometry>
        </mxCell>
        <mxCell id="yvn1otVcxnGCeWS-NwdR-49" value="pickUtils.updateOriginalPicks" style="html=1;points=[];perimeter=orthogonalPerimeter;rounded=0;shadow=0;glass=0;labelBackgroundColor=none;sketch=0;strokeColor=#82b366;fontSize=10;fillColor=#d5e8d4;rotation=90;horizontal=0;" vertex="1" parent="1">
          <mxGeometry x="601.25" y="705" width="27.5" height="145" as="geometry" />
        </mxCell>
        <mxCell id="yvn1otVcxnGCeWS-NwdR-50" value="pickUtils" style="html=1;verticalAlign=bottom;startArrow=blockThin;endArrow=none;startSize=8;labelBackgroundColor=none;fontSize=10;fontColor=#FF0000;align=center;exitX=0.406;exitY=1.004;exitDx=0;exitDy=0;exitPerimeter=0;entryX=0.518;entryY=0.997;entryDx=0;entryDy=0;entryPerimeter=0;startFill=1;endFill=0;rounded=0;" edge="1" parent="1">
          <mxGeometry x="0.481" relative="1" as="geometry">
            <mxPoint x="492.18000000000006" y="740.5480000000002" as="sourcePoint" />
            <mxPoint x="542.9350000000002" y="777.9949999999999" as="targetPoint" />
            <Array as="points">
              <mxPoint x="492" y="778" />
            </Array>
            <mxPoint as="offset" />
          </mxGeometry>
        </mxCell>
        <mxCell id="yvn1otVcxnGCeWS-NwdR-51" value="" style="edgeStyle=orthogonalEdgeStyle;html=1;align=left;verticalAlign=top;endArrow=blockThin;endSize=8;fontSize=10;fontColor=#FF0000;labelBackgroundColor=none;endFill=1;entryX=0;entryY=0.5;entryDx=0;entryDy=0;rounded=0;" edge="1" parent="1" target="yvn1otVcxnGCeWS-NwdR-46">
          <mxGeometry x="-0.6" relative="1" as="geometry">
            <mxPoint x="510" y="709.9975000000002" as="targetPoint" />
            <mxPoint x="510" y="660" as="sourcePoint" />
            <mxPoint as="offset" />
            <Array as="points">
              <mxPoint x="510" y="660" />
            </Array>
          </mxGeometry>
        </mxCell>
        <mxCell id="yvn1otVcxnGCeWS-NwdR-54" style="edgeStyle=orthogonalEdgeStyle;rounded=0;orthogonalLoop=1;jettySize=auto;html=1;labelBackgroundColor=none;startArrow=none;startFill=0;endArrow=blockThin;endFill=1;fontSize=10;fontColor=#FF0000;align=center;" edge="1" parent="1" source="yvn1otVcxnGCeWS-NwdR-52">
          <mxGeometry relative="1" as="geometry">
            <mxPoint x="791.5" y="560" as="targetPoint" />
          </mxGeometry>
        </mxCell>
        <mxCell id="yvn1otVcxnGCeWS-NwdR-52" value="new PickUtils()" style="html=1;points=[];perimeter=orthogonalPerimeter;rounded=0;shadow=0;glass=0;labelBackgroundColor=none;sketch=0;strokeColor=#82b366;fontSize=10;fillColor=#d5e8d4;rotation=90;horizontal=0;" vertex="1" parent="1">
          <mxGeometry x="777.75" y="608.75" width="27.5" height="102.5" as="geometry" />
        </mxCell>
        <mxCell id="yvn1otVcxnGCeWS-NwdR-56" value="pickUtils" style="text;align=center;fontStyle=1;verticalAlign=middle;spacingLeft=3;spacingRight=3;strokeColor=none;rotatable=0;points=[[0,0.5],[1,0.5]];portConstraint=eastwest;rounded=0;shadow=0;glass=0;labelBackgroundColor=#ffffff;sketch=0;fontSize=10;fontColor=#FF0000;html=1;" vertex="1" parent="1">
          <mxGeometry x="530" y="474" width="80" height="26" as="geometry" />
        </mxCell>
        <mxCell id="yvn1otVcxnGCeWS-NwdR-58" value="&lt;span style=&quot;color: rgb(0 , 0 , 0) ; font-family: &amp;#34;helvetica&amp;#34; ; font-size: 12px ; font-style: normal ; letter-spacing: normal ; text-indent: 0px ; text-transform: none ; word-spacing: 0px ; display: inline ; float: none&quot;&gt;&lt;b&gt;Caching&lt;/b&gt;&lt;br&gt;pickUtils.cacheValue&lt;br&gt;&lt;/span&gt;" style="text;whiteSpace=wrap;html=1;fontSize=10;fontColor=#333333;align=center;labelBackgroundColor=none;fillColor=#f5f5f5;strokeColor=#666666;dashed=1;" vertex="1" parent="1">
          <mxGeometry x="650" y="578.75" width="120" height="41.25" as="geometry" />
        </mxCell>
        <mxCell id="yvn1otVcxnGCeWS-NwdR-59" value="constructor&lt;br&gt;init()" style="html=1;points=[];perimeter=orthogonalPerimeter;rounded=0;shadow=0;glass=0;dashed=1;labelBackgroundColor=none;sketch=0;strokeColor=#6c8ebf;fontSize=10;align=center;fillColor=#dae8fc;horizontal=0;" vertex="1" parent="1">
          <mxGeometry x="1040" y="250" width="30" height="290" as="geometry" />
        </mxCell>
        <mxCell id="yvn1otVcxnGCeWS-NwdR-60" value="picks&lt;br&gt;events&lt;br&gt;matchups" style="html=1;verticalAlign=bottom;endArrow=block;entryX=-0.024;entryY=0.053;labelBackgroundColor=none;fontSize=10;fontColor=#FF0000;align=left;entryDx=0;entryDy=0;entryPerimeter=0;" edge="1" target="yvn1otVcxnGCeWS-NwdR-59" parent="1">
          <mxGeometry x="-0.7044" y="-45" relative="1" as="geometry">
            <mxPoint x="970" y="265" as="sourcePoint" />
            <mxPoint as="offset" />
          </mxGeometry>
        </mxCell>
        <mxCell id="yvn1otVcxnGCeWS-NwdR-61" value="pickUtils" style="html=1;verticalAlign=bottom;endArrow=blockThin;dashed=1;endSize=8;exitX=0;exitY=0.95;labelBackgroundColor=none;fontSize=10;fontColor=#FF0000;align=center;endFill=1;" edge="1" source="yvn1otVcxnGCeWS-NwdR-59" parent="1">
          <mxGeometry relative="1" as="geometry">
            <mxPoint x="970" y="526" as="targetPoint" />
          </mxGeometry>
        </mxCell>
        <mxCell id="yvn1otVcxnGCeWS-NwdR-67" style="edgeStyle=orthogonalEdgeStyle;rounded=0;orthogonalLoop=1;jettySize=auto;html=1;entryX=0;entryY=0.5;entryDx=0;entryDy=0;labelBackgroundColor=none;startArrow=none;startFill=0;endArrow=blockThin;endFill=1;strokeColor=#000000;fontSize=10;fontColor=#FF0000;align=center;" edge="1" parent="1" source="yvn1otVcxnGCeWS-NwdR-62" target="VF1F4Plbv53C-rskRq-l-165">
          <mxGeometry relative="1" as="geometry" />
        </mxCell>
        <mxCell id="yvn1otVcxnGCeWS-NwdR-62" value="bracketUtils = new BracketUtils(matchups)" style="html=1;points=[];perimeter=orthogonalPerimeter;rounded=0;shadow=0;glass=0;labelBackgroundColor=none;sketch=0;strokeColor=#82b366;fontSize=10;fillColor=#d5e8d4;rotation=90;horizontal=0;" vertex="1" parent="1">
          <mxGeometry x="1177.5" y="164" width="27.5" height="205" as="geometry" />
        </mxCell>
        <mxCell id="yvn1otVcxnGCeWS-NwdR-70" style="edgeStyle=orthogonalEdgeStyle;rounded=0;orthogonalLoop=1;jettySize=auto;html=1;labelBackgroundColor=none;startArrow=none;startFill=0;endArrow=blockThin;endFill=1;strokeColor=#000000;fontSize=10;fontColor=#FF0000;align=left;" edge="1" parent="1" source="yvn1otVcxnGCeWS-NwdR-63">
          <mxGeometry relative="1" as="geometry">
            <mxPoint x="1360" y="318.5" as="targetPoint" />
          </mxGeometry>
        </mxCell>
        <mxCell id="yvn1otVcxnGCeWS-NwdR-63" value="processNewMatchupsAndEvents(events)" style="html=1;points=[];perimeter=orthogonalPerimeter;rounded=0;shadow=0;glass=0;labelBackgroundColor=none;sketch=0;strokeColor=#82b366;fontSize=10;fillColor=#d5e8d4;rotation=90;horizontal=0;" vertex="1" parent="1">
          <mxGeometry x="1177.5" y="216" width="27.5" height="205" as="geometry" />
        </mxCell>
        <mxCell id="yvn1otVcxnGCeWS-NwdR-64" value="picks = ensureCleanedPicks(picks)" style="html=1;points=[];perimeter=orthogonalPerimeter;rounded=0;shadow=0;glass=0;labelBackgroundColor=none;sketch=0;strokeColor=#82b366;fontSize=10;fillColor=#d5e8d4;rotation=90;horizontal=0;" vertex="1" parent="1">
          <mxGeometry x="1177.5" y="267" width="27.5" height="205" as="geometry" />
        </mxCell>
        <mxCell id="yvn1otVcxnGCeWS-NwdR-65" value="processNodes" style="html=1;points=[];perimeter=orthogonalPerimeter;rounded=0;shadow=0;glass=0;labelBackgroundColor=none;sketch=0;strokeColor=#82b366;fontSize=10;fillColor=#d5e8d4;rotation=90;horizontal=0;" vertex="1" parent="1">
          <mxGeometry x="1177.5" y="319" width="27.5" height="205" as="geometry" />
        </mxCell>
        <mxCell id="yvn1otVcxnGCeWS-NwdR-66" value="updatePIcksCacheKey" style="html=1;points=[];perimeter=orthogonalPerimeter;rounded=0;shadow=0;glass=0;labelBackgroundColor=none;sketch=0;strokeColor=#82b366;fontSize=10;fillColor=#d5e8d4;rotation=90;horizontal=0;" vertex="1" parent="1">
          <mxGeometry x="1177.5" y="370" width="27.5" height="205" as="geometry" />
        </mxCell>
        <mxCell id="yvn1otVcxnGCeWS-NwdR-81" style="edgeStyle=orthogonalEdgeStyle;rounded=0;orthogonalLoop=1;jettySize=auto;html=1;labelBackgroundColor=none;startArrow=none;startFill=0;endArrow=blockThin;endFill=1;endSize=6;strokeColor=#000000;fontSize=10;fontColor=#FF0000;align=left;entryX=0.5;entryY=1.002;entryDx=0;entryDy=0;entryPerimeter=0;" edge="1" parent="1" source="yvn1otVcxnGCeWS-NwdR-68" target="yvn1otVcxnGCeWS-NwdR-80">
          <mxGeometry relative="1" as="geometry">
            <mxPoint x="1320" y="524.25" as="targetPoint" />
          </mxGeometry>
        </mxCell>
        <mxCell id="yvn1otVcxnGCeWS-NwdR-68" value="buildMappings" style="html=1;points=[];perimeter=orthogonalPerimeter;rounded=0;shadow=0;glass=0;labelBackgroundColor=none;sketch=0;strokeColor=#82b366;fontSize=10;fillColor=#d5e8d4;rotation=90;horizontal=0;" vertex="1" parent="1">
          <mxGeometry x="1177.5" y="421.75" width="27.5" height="205" as="geometry" />
        </mxCell>
        <mxCell id="yvn1otVcxnGCeWS-NwdR-71" value="period.tournamentId&lt;br&gt;bracketPeriodTree" style="rhombus;whiteSpace=wrap;html=1;fillColor=#ffffc0;strokeColor=#ff0000;rounded=0;shadow=0;glass=0;dashed=1;labelBackgroundColor=none;sketch=0;fontSize=10;fontColor=#FF0000;align=center;" vertex="1" parent="1">
          <mxGeometry x="1360" y="284.25" width="130" height="68.5" as="geometry" />
        </mxCell>
        <mxCell id="yvn1otVcxnGCeWS-NwdR-72" value="no" style="edgeStyle=orthogonalEdgeStyle;html=1;align=left;verticalAlign=bottom;endArrow=blockThin;endSize=6;strokeColor=#ff0000;labelBackgroundColor=none;fontSize=10;fontColor=#FF0000;rounded=0;endFill=1;entryX=0.685;entryY=0.995;entryDx=0;entryDy=0;entryPerimeter=0;" edge="1" source="yvn1otVcxnGCeWS-NwdR-71" parent="1" target="yvn1otVcxnGCeWS-NwdR-74">
          <mxGeometry x="-0.7687" relative="1" as="geometry">
            <mxPoint x="1530" y="210" as="targetPoint" />
            <Array as="points">
              <mxPoint x="1570" y="319" />
              <mxPoint x="1570" y="207" />
            </Array>
            <mxPoint as="offset" />
          </mxGeometry>
        </mxCell>
        <mxCell id="yvn1otVcxnGCeWS-NwdR-75" style="edgeStyle=orthogonalEdgeStyle;rounded=0;orthogonalLoop=1;jettySize=auto;html=1;labelBackgroundColor=none;startArrow=none;startFill=0;endArrow=blockThin;endFill=1;endSize=6;strokeColor=#000000;fontSize=10;fontColor=#FF0000;align=left;entryX=0.475;entryY=0.999;entryDx=0;entryDy=0;entryPerimeter=0;" edge="1" parent="1" source="yvn1otVcxnGCeWS-NwdR-74" target="VF1F4Plbv53C-rskRq-l-191">
          <mxGeometry relative="1" as="geometry">
            <mxPoint x="2030" y="90" as="targetPoint" />
            <Array as="points">
              <mxPoint x="2092" y="199" />
            </Array>
          </mxGeometry>
        </mxCell>
        <mxCell id="yvn1otVcxnGCeWS-NwdR-74" value="bracketUtils.buildTreeFor(period)" style="html=1;points=[];perimeter=orthogonalPerimeter;fillColor=#ffe6cc;strokeColor=#d79b00;horizontal=0;fontSize=10;rotation=90;" vertex="1" parent="1">
          <mxGeometry x="1791.98" y="66.35" width="42" height="265.31" as="geometry" />
        </mxCell>
        <mxCell id="yvn1otVcxnGCeWS-NwdR-77" value="" style="edgeStyle=orthogonalEdgeStyle;html=1;align=left;spacingLeft=2;endArrow=block;rounded=0;entryX=1;entryY=0;labelBackgroundColor=none;strokeColor=#000000;fontSize=10;fontColor=#FF0000;" edge="1" parent="1">
          <mxGeometry relative="1" as="geometry">
            <mxPoint x="1300" y="359.5" as="sourcePoint" />
            <Array as="points">
              <mxPoint x="1325" y="359.5" />
            </Array>
            <mxPoint x="1305" y="379.5" as="targetPoint" />
          </mxGeometry>
        </mxCell>
        <mxCell id="yvn1otVcxnGCeWS-NwdR-78" value="" style="edgeStyle=orthogonalEdgeStyle;html=1;align=left;spacingLeft=2;endArrow=block;rounded=0;entryX=1;entryY=0;labelBackgroundColor=none;strokeColor=#000000;fontSize=10;fontColor=#FF0000;" edge="1" parent="1">
          <mxGeometry relative="1" as="geometry">
            <mxPoint x="1300" y="411.5" as="sourcePoint" />
            <Array as="points">
              <mxPoint x="1325" y="411.5" />
            </Array>
            <mxPoint x="1305" y="431.5" as="targetPoint" />
          </mxGeometry>
        </mxCell>
        <mxCell id="yvn1otVcxnGCeWS-NwdR-79" value="" style="edgeStyle=orthogonalEdgeStyle;html=1;align=left;spacingLeft=2;endArrow=block;rounded=0;entryX=1;entryY=0;labelBackgroundColor=none;strokeColor=#000000;fontSize=10;fontColor=#FF0000;" edge="1" parent="1">
          <mxGeometry relative="1" as="geometry">
            <mxPoint x="1300" y="462.5" as="sourcePoint" />
            <Array as="points">
              <mxPoint x="1325" y="462.5" />
            </Array>
            <mxPoint x="1305" y="482.5" as="targetPoint" />
          </mxGeometry>
        </mxCell>
        <mxCell id="yvn1otVcxnGCeWS-NwdR-82" style="edgeStyle=orthogonalEdgeStyle;rounded=0;orthogonalLoop=1;jettySize=auto;html=1;labelBackgroundColor=none;startArrow=none;startFill=0;endArrow=blockThin;endFill=1;endSize=6;strokeColor=#000000;fontSize=10;fontColor=#FF0000;align=left;" edge="1" parent="1" source="yvn1otVcxnGCeWS-NwdR-80">
          <mxGeometry relative="1" as="geometry">
            <mxPoint x="1426" y="620" as="targetPoint" />
          </mxGeometry>
        </mxCell>
        <mxCell id="yvn1otVcxnGCeWS-NwdR-80" value="buildBracketMapping" style="html=1;points=[];perimeter=orthogonalPerimeter;rounded=0;shadow=0;glass=0;labelBackgroundColor=none;sketch=0;strokeColor=#82b366;fontSize=10;fillColor=#d5e8d4;rotation=90;horizontal=0;" vertex="1" parent="1">
          <mxGeometry x="1412.25" y="421.75" width="27.5" height="205" as="geometry" />
        </mxCell>
      </root>
    </mxGraphModel>
  </diagram>
</mxfile>
